<svg width="33" height="33" viewBox="0 0 33 33" fill="none" xmlns="http://www.w3.org/2000/svg">
<rect width="32.9201" height="32.9201" rx="16.46" fill="#2D2D2D"/>
<path d="M14.335 18.71H18.585C19.5867 18.71 20.0876 18.71 20.3988 19.0395C20.71 19.369 20.71 19.8993 20.71 20.96V23.21C20.71 24.2706 20.71 24.801 20.3988 25.1305C20.0876 25.46 19.5867 25.46 18.585 25.46H14.335M14.335 18.71V25.46M14.335 18.71H7.95996M14.335 18.71V14.21C14.335 13.1493 14.335 12.619 14.0238 12.2895C13.7126 11.96 13.2117 11.96 12.21 11.96H10.085C9.08323 11.96 8.58236 11.96 8.27116 12.2895C7.95996 12.619 7.95996 13.1493 7.95996 14.21V18.71M14.335 25.46H10.085C9.08323 25.46 8.58236 25.46 8.27116 25.1305C7.95996 24.801 7.95996 24.2706 7.95996 23.21V18.71M20.71 7.45996H22.835C23.8367 7.45996 24.3376 7.45996 24.6488 7.78947C24.96 8.11897 24.96 8.6493 24.96 9.70996V11.96C24.96 13.0206 24.96 13.551 24.6488 13.8805C24.3376 14.21 23.8367 14.21 22.835 14.21H20.71C19.7082 14.21 19.2074 14.21 18.8962 13.8805C18.585 13.551 18.585 13.0206 18.585 11.96V9.70996C18.585 8.6493 18.585 8.11897 18.8962 7.78947C19.2074 7.45996 19.7082 7.45996 20.71 7.45996Z" stroke="url(#paint0_linear_3819_4307)" stroke-width="1.5" stroke-linecap="round"/>
<defs>
<linearGradient id="paint0_linear_3819_4307" x1="7.95996" y1="16.46" x2="24.96" y2="16.46" gradientUnits="userSpaceOnUse">
<stop stop-color="#00F5A0"/>
<stop offset="1" stop-color="#00D9F5"/>
</linearGradient>
</defs>
</svg>
