<svg width="5" height="18" viewBox="0 0 5 18" fill="none" xmlns="http://www.w3.org/2000/svg">
<path d="M4.09074 15.9231C4.09074 16.4739 3.87524 17.0022 3.49166 17.3917C3.10808 17.7812 2.58783 18 2.04537 18C1.5029 18 0.982655 17.7812 0.599074 17.3917C0.215493 17.0022 -7.39057e-08 16.4739 -1.00582e-07 15.9231C-1.27258e-07 15.3722 0.215493 14.844 0.599074 14.4545C0.982655 14.065 1.5029 13.8462 2.04537 13.8462C2.58783 13.8462 3.10808 14.065 3.49166 14.4545C3.87524 14.844 4.09074 15.3722 4.09074 15.9231ZM4.09074 9C4.09074 9.55083 3.87524 10.0791 3.49166 10.4686C3.10808 10.8581 2.58783 11.0769 2.04537 11.0769C1.5029 11.0769 0.982655 10.8581 0.599074 10.4686C0.215493 10.0791 -4.09178e-07 9.55083 -4.35854e-07 9C-4.6253e-07 8.44917 0.215493 7.92089 0.599074 7.53139C0.982655 7.1419 1.5029 6.92308 2.04537 6.92308C2.58783 6.92308 3.10808 7.1419 3.49166 7.53139C3.87524 7.92089 4.09074 8.44917 4.09074 9ZM4.09074 2.07692C4.09074 2.62776 3.87524 3.15603 3.49166 3.54553C3.10808 3.93503 2.58783 4.15385 2.04537 4.15385C1.5029 4.15385 0.982654 3.93503 0.599073 3.54553C0.215493 3.15603 -7.4445e-07 2.62776 -7.71126e-07 2.07692C-7.97802e-07 1.52609 0.215492 0.997815 0.599073 0.608316C0.982654 0.218818 1.5029 -5.92955e-08 2.04537 -8.0698e-08C2.58783 -1.021e-07 3.10808 0.218818 3.49166 0.608316C3.87524 0.997815 4.09074 1.52609 4.09074 2.07692Z" fill="white"/>
</svg>
