<svg width="71" height="71" viewBox="0 0 71 71" fill="none" xmlns="http://www.w3.org/2000/svg">
<path d="M0 35.1973C0 15.7584 15.7584 0 35.1973 0C54.6362 0 70.3945 15.7584 70.3945 35.1973C70.3945 54.6362 54.6362 70.3945 35.1973 70.3945C15.7584 70.3945 0 54.6362 0 35.1973Z" fill="#EB5757"/>
<path d="M54.2394 38.8098L53.8365 40.6624C53.4578 42.3992 51.7959 43.5289 49.9537 43.3025L46.2843 42.8506C44.6871 42.6533 43.3514 41.479 42.9831 39.9486L41.96 35.6854C40.2979 34.9525 38.4548 34.59 36.4318 34.5964C34.4835 34.5868 32.5532 34.9683 30.755 35.7181L29.9497 39.664C29.6435 41.1578 28.3736 42.2463 26.8012 42.3617L23.1357 42.6349C21.3056 42.7702 19.5877 41.5633 19.1146 39.8115L18.6069 37.935C18.1025 36.0663 18.6468 34.1266 20.0373 32.8461C23.3199 29.8189 28.6948 28.4008 36.1654 28.586C43.6472 28.7719 49.1105 30.4668 52.5486 33.6689C53.9957 35.016 54.64 36.9713 54.2394 38.8098Z" fill="white"/>
</svg>
