<svg width="248" height="249" viewBox="0 0 248 249" fill="none" xmlns="http://www.w3.org/2000/svg">
<path d="M111.298 11.4799C118.592 5.17456 129.408 5.17455 136.702 11.4799C141.877 15.9531 149.023 17.3746 155.516 15.2222C164.668 12.1882 174.66 16.3271 178.986 24.9438C182.055 31.0569 188.113 35.1049 194.936 35.601C204.552 36.3003 212.2 43.948 212.899 53.5643C213.395 60.3865 217.443 66.4449 223.556 69.514C232.173 73.84 236.312 83.8322 233.278 92.9842C231.125 99.4769 232.547 106.623 237.02 111.798C243.325 119.092 243.325 129.908 237.02 137.202C232.547 142.377 231.125 149.523 233.278 156.016C236.312 165.168 232.173 175.16 223.556 179.486C217.443 182.555 213.395 188.613 212.899 195.436C212.2 205.052 204.552 212.7 194.936 213.399C188.113 213.895 182.055 217.943 178.986 224.056C174.66 232.673 164.668 236.812 155.516 233.778C149.023 231.625 141.877 233.047 136.702 237.52C129.408 243.825 118.592 243.825 111.298 237.52C106.123 233.047 98.9769 231.625 92.4842 233.778C83.3322 236.812 73.34 232.673 69.014 224.056C65.9449 217.943 59.8865 213.895 53.0643 213.399C43.448 212.7 35.8003 205.052 35.101 195.436C34.6049 188.613 30.5569 182.555 24.4438 179.486C15.8271 175.16 11.6882 165.168 14.7222 156.016C16.8746 149.523 15.4531 142.377 10.9799 137.202C4.67456 129.908 4.67455 119.092 10.9799 111.798C15.4531 106.623 16.8746 99.4769 14.7222 92.9842C11.6882 83.8322 15.8271 73.84 24.4438 69.514C30.5569 66.4449 34.6049 60.3865 35.101 53.5643C35.8003 43.948 43.448 36.3003 53.0643 35.601C59.8865 35.1049 65.9449 31.0569 69.014 24.9438C73.34 16.3271 83.3322 12.1882 92.4842 15.2222C98.9769 17.3746 106.123 15.9531 111.298 11.4799Z" fill="#0077C2"/>
<g filter="url(#filter0_d_3819_4466)">
<circle cx="124.5" cy="125" r="79.5" fill="white"/>
</g>
<path d="M94 125L115.006 146.5L157 103.5" stroke="#0077C2" stroke-width="8" stroke-linecap="round" stroke-linejoin="round"/>
<defs>
<filter id="filter0_d_3819_4466" x="41.3819" y="45.5" width="166.236" height="166.236" filterUnits="userSpaceOnUse" color-interpolation-filters="sRGB">
<feFlood flood-opacity="0" result="BackgroundImageFix"/>
<feColorMatrix in="SourceAlpha" type="matrix" values="0 0 0 0 0 0 0 0 0 0 0 0 0 0 0 0 0 0 127 0" result="hardAlpha"/>
<feOffset dy="3.61809"/>
<feGaussianBlur stdDeviation="1.80905"/>
<feComposite in2="hardAlpha" operator="out"/>
<feColorMatrix type="matrix" values="0 0 0 0 0 0 0 0 0 0 0 0 0 0 0 0 0 0 0.25 0"/>
<feBlend mode="normal" in2="BackgroundImageFix" result="effect1_dropShadow_3819_4466"/>
<feBlend mode="normal" in="SourceGraphic" in2="effect1_dropShadow_3819_4466" result="shape"/>
</filter>
</defs>
</svg>
