<svg width="188" height="36" viewBox="0 0 188 36" fill="none" xmlns="http://www.w3.org/2000/svg">
<rect width="188" height="36" rx="18" fill="url(#paint0_linear_3819_4302)"/>
<path d="M22 8C23.8452 8 25.3293 8 26.5401 8.08783L23.0986 13.25H18.4014L21.9014 8H22Z" fill="white"/>
<path d="M13.4645 9.46447C14.7168 8.2121 16.6219 8.03072 20.0957 8.00445L16.5986 13.25H12.1042C12.2514 11.4859 12.6068 10.3221 13.4645 9.46447Z" fill="white"/>
<path fill-rule="evenodd" clip-rule="evenodd" d="M12 18C12 16.7633 12 15.6887 12.0264 14.75H31.9736C32 15.6887 32 16.7633 32 18C32 22.714 32 25.0711 30.5355 26.5355C29.0711 28 26.714 28 22 28C17.286 28 14.9289 28 13.4645 26.5355C12 25.0711 12 22.714 12 18ZM23.014 18.5852C24.338 19.4395 25 19.8666 25 20.5C25 21.1334 24.338 21.5605 23.014 22.4148C21.6719 23.2807 21.0008 23.7137 20.5004 23.3958C20 23.0779 20 22.2186 20 20.5C20 18.7814 20 17.9221 20.5004 17.6042C21.0008 17.2863 21.6719 17.7193 23.014 18.5852Z" fill="white"/>
<path d="M31.8958 13.25C31.7486 11.4859 31.3932 10.3221 30.5355 9.46447C29.9382 8.86714 29.1924 8.51345 28.1987 8.30403L24.9014 13.25H31.8958Z" fill="white"/>
<path d="M46.3125 19.5625L48.5703 11.625H49.6641L49.0312 14.7109L46.6016 23H45.5156L46.3125 19.5625ZM43.9766 11.625L45.7734 19.4062L46.3125 23H45.2344L42.4766 11.625H43.9766ZM52.5859 19.3984L54.3438 11.625H55.8516L53.1016 23H52.0234L52.5859 19.3984ZM49.8281 11.625L52.0234 19.5625L52.8203 23H51.7344L49.3906 14.7109L48.75 11.625H49.8281ZM62.0234 21.5547V17.2031C62.0234 16.8698 61.9557 16.5807 61.8203 16.3359C61.6901 16.0859 61.4922 15.8932 61.2266 15.7578C60.9609 15.6224 60.6328 15.5547 60.2422 15.5547C59.8776 15.5547 59.5573 15.6172 59.2812 15.7422C59.0104 15.8672 58.7969 16.0312 58.6406 16.2344C58.4896 16.4375 58.4141 16.6562 58.4141 16.8906H56.9688C56.9688 16.5885 57.0469 16.2891 57.2031 15.9922C57.3594 15.6953 57.5833 15.4271 57.875 15.1875C58.1719 14.9427 58.526 14.75 58.9375 14.6094C59.3542 14.4635 59.8177 14.3906 60.3281 14.3906C60.9427 14.3906 61.4844 14.4948 61.9531 14.7031C62.4271 14.9115 62.7969 15.2266 63.0625 15.6484C63.3333 16.0651 63.4688 16.5885 63.4688 17.2188V21.1562C63.4688 21.4375 63.4922 21.737 63.5391 22.0547C63.5911 22.3724 63.6667 22.6458 63.7656 22.875V23H62.2578C62.1849 22.8333 62.1276 22.612 62.0859 22.3359C62.0443 22.0547 62.0234 21.7943 62.0234 21.5547ZM62.2734 17.875L62.2891 18.8906H60.8281C60.4167 18.8906 60.0495 18.9245 59.7266 18.9922C59.4036 19.0547 59.1328 19.151 58.9141 19.2812C58.6953 19.4115 58.5286 19.5755 58.4141 19.7734C58.2995 19.9661 58.2422 20.1927 58.2422 20.4531C58.2422 20.7188 58.3021 20.9609 58.4219 21.1797C58.5417 21.3984 58.7214 21.5729 58.9609 21.7031C59.2057 21.8281 59.5052 21.8906 59.8594 21.8906C60.3021 21.8906 60.6927 21.7969 61.0312 21.6094C61.3698 21.4219 61.638 21.1927 61.8359 20.9219C62.0391 20.651 62.1484 20.388 62.1641 20.1328L62.7812 20.8281C62.7448 21.0469 62.6458 21.2891 62.4844 21.5547C62.3229 21.8203 62.1068 22.0755 61.8359 22.3203C61.5703 22.5599 61.2526 22.7604 60.8828 22.9219C60.5182 23.0781 60.1068 23.1562 59.6484 23.1562C59.0755 23.1562 58.5729 23.0443 58.1406 22.8203C57.7135 22.5964 57.3802 22.2969 57.1406 21.9219C56.9062 21.5417 56.7891 21.1172 56.7891 20.6484C56.7891 20.1953 56.8776 19.7969 57.0547 19.4531C57.2318 19.1042 57.487 18.8151 57.8203 18.5859C58.1536 18.3516 58.5547 18.1745 59.0234 18.0547C59.4922 17.9349 60.0156 17.875 60.5938 17.875H62.2734ZM69.2812 14.5469V15.6562H64.7109V14.5469H69.2812ZM66.2578 12.4922H67.7031V20.9062C67.7031 21.1927 67.7474 21.4089 67.8359 21.5547C67.9245 21.7005 68.0391 21.7969 68.1797 21.8438C68.3203 21.8906 68.4714 21.9141 68.6328 21.9141C68.7526 21.9141 68.8776 21.9036 69.0078 21.8828C69.1432 21.8568 69.2448 21.8359 69.3125 21.8203L69.3203 23C69.2057 23.0365 69.0547 23.0703 68.8672 23.1016C68.6849 23.138 68.4635 23.1562 68.2031 23.1562C67.849 23.1562 67.5234 23.0859 67.2266 22.9453C66.9297 22.8047 66.6927 22.5703 66.5156 22.2422C66.3438 21.9089 66.2578 21.4609 66.2578 20.8984V12.4922ZM74.3594 21.9688C74.7031 21.9688 75.0208 21.8984 75.3125 21.7578C75.6042 21.6172 75.8438 21.4245 76.0312 21.1797C76.2188 20.9297 76.3255 20.6458 76.3516 20.3281H77.7266C77.7005 20.8281 77.5312 21.2943 77.2188 21.7266C76.9115 22.1536 76.5078 22.5 76.0078 22.7656C75.5078 23.026 74.9583 23.1562 74.3594 23.1562C73.724 23.1562 73.1693 23.0443 72.6953 22.8203C72.2266 22.5964 71.8359 22.2891 71.5234 21.8984C71.2161 21.5078 70.9844 21.0599 70.8281 20.5547C70.6771 20.0443 70.6016 19.5052 70.6016 18.9375V18.6094C70.6016 18.0417 70.6771 17.5052 70.8281 17C70.9844 16.4896 71.2161 16.0391 71.5234 15.6484C71.8359 15.2578 72.2266 14.9505 72.6953 14.7266C73.1693 14.5026 73.724 14.3906 74.3594 14.3906C75.0208 14.3906 75.599 14.526 76.0938 14.7969C76.5885 15.0625 76.9766 15.4271 77.2578 15.8906C77.5443 16.349 77.7005 16.8698 77.7266 17.4531H76.3516C76.3255 17.1042 76.2266 16.7891 76.0547 16.5078C75.888 16.2266 75.6589 16.0026 75.3672 15.8359C75.0807 15.6641 74.7448 15.5781 74.3594 15.5781C73.9167 15.5781 73.5443 15.6667 73.2422 15.8438C72.9453 16.0156 72.7083 16.25 72.5312 16.5469C72.3594 16.8385 72.2344 17.1641 72.1562 17.5234C72.0833 17.8776 72.0469 18.2396 72.0469 18.6094V18.9375C72.0469 19.3073 72.0833 19.6719 72.1562 20.0312C72.2292 20.3906 72.3516 20.7161 72.5234 21.0078C72.7005 21.2995 72.9375 21.5339 73.2344 21.7109C73.5365 21.8828 73.9115 21.9688 74.3594 21.9688ZM80.7969 11V23H79.3516V11H80.7969ZM80.4531 18.4531L79.8516 18.4297C79.8568 17.8516 79.9427 17.3177 80.1094 16.8281C80.276 16.3333 80.5104 15.9036 80.8125 15.5391C81.1146 15.1745 81.474 14.8932 81.8906 14.6953C82.3125 14.4922 82.7786 14.3906 83.2891 14.3906C83.7057 14.3906 84.0807 14.4479 84.4141 14.5625C84.7474 14.6719 85.0312 14.849 85.2656 15.0938C85.5052 15.3385 85.6875 15.6562 85.8125 16.0469C85.9375 16.4323 86 16.9036 86 17.4609V23H84.5469V17.4453C84.5469 17.0026 84.4818 16.6484 84.3516 16.3828C84.2214 16.112 84.0312 15.9167 83.7812 15.7969C83.5312 15.6719 83.224 15.6094 82.8594 15.6094C82.5 15.6094 82.1719 15.6849 81.875 15.8359C81.5833 15.987 81.3307 16.1953 81.1172 16.4609C80.9089 16.7266 80.7448 17.0312 80.625 17.375C80.5104 17.7135 80.4531 18.0729 80.4531 18.4531ZM95.4297 23H93.0547L93.0703 21.7734H95.4297C96.2422 21.7734 96.9193 21.6042 97.4609 21.2656C98.0026 20.9219 98.4089 20.4427 98.6797 19.8281C98.9557 19.2083 99.0938 18.4844 99.0938 17.6562V16.9609C99.0938 16.3099 99.0156 15.7318 98.8594 15.2266C98.7031 14.7161 98.474 14.2865 98.1719 13.9375C97.8698 13.5833 97.5 13.3151 97.0625 13.1328C96.6302 12.9505 96.1328 12.8594 95.5703 12.8594H93.0078V11.625H95.5703C96.3151 11.625 96.9948 11.75 97.6094 12C98.224 12.2448 98.7526 12.6016 99.1953 13.0703C99.6432 13.5339 99.987 14.0964 100.227 14.7578C100.466 15.4141 100.586 16.1536 100.586 16.9766V17.6562C100.586 18.4792 100.466 19.2214 100.227 19.8828C99.987 20.5391 99.6406 21.099 99.1875 21.5625C98.7396 22.026 98.1979 22.3828 97.5625 22.6328C96.9323 22.8776 96.2214 23 95.4297 23ZM93.8594 11.625V23H92.3516V11.625H93.8594ZM106.141 23.1562C105.552 23.1562 105.018 23.0573 104.539 22.8594C104.065 22.6562 103.656 22.3724 103.312 22.0078C102.974 21.6432 102.714 21.2109 102.531 20.7109C102.349 20.2109 102.258 19.6641 102.258 19.0703V18.7422C102.258 18.0547 102.359 17.4427 102.562 16.9062C102.766 16.3646 103.042 15.9062 103.391 15.5312C103.74 15.1562 104.135 14.8724 104.578 14.6797C105.021 14.487 105.479 14.3906 105.953 14.3906C106.557 14.3906 107.078 14.4948 107.516 14.7031C107.958 14.9115 108.32 15.2031 108.602 15.5781C108.883 15.9479 109.091 16.3854 109.227 16.8906C109.362 17.3906 109.43 17.9375 109.43 18.5312V19.1797H103.117V18H107.984V17.8906C107.964 17.5156 107.885 17.151 107.75 16.7969C107.62 16.4427 107.411 16.151 107.125 15.9219C106.839 15.6927 106.448 15.5781 105.953 15.5781C105.625 15.5781 105.323 15.6484 105.047 15.7891C104.771 15.9245 104.534 16.1276 104.336 16.3984C104.138 16.6693 103.984 17 103.875 17.3906C103.766 17.7812 103.711 18.2318 103.711 18.7422V19.0703C103.711 19.4714 103.766 19.849 103.875 20.2031C103.99 20.5521 104.154 20.8594 104.367 21.125C104.586 21.3906 104.849 21.599 105.156 21.75C105.469 21.901 105.823 21.9766 106.219 21.9766C106.729 21.9766 107.161 21.8724 107.516 21.6641C107.87 21.4557 108.18 21.1771 108.445 20.8281L109.32 21.5234C109.138 21.7995 108.906 22.0625 108.625 22.3125C108.344 22.5625 107.997 22.7656 107.586 22.9219C107.18 23.0781 106.698 23.1562 106.141 23.1562ZM112.555 16.2266V23H111.102V14.5469H112.477L112.555 16.2266ZM112.258 18.4531L111.586 18.4297C111.591 17.8516 111.667 17.3177 111.812 16.8281C111.958 16.3333 112.174 15.9036 112.461 15.5391C112.747 15.1745 113.104 14.8932 113.531 14.6953C113.958 14.4922 114.453 14.3906 115.016 14.3906C115.411 14.3906 115.776 14.4479 116.109 14.5625C116.443 14.6719 116.732 14.8464 116.977 15.0859C117.221 15.3255 117.411 15.6328 117.547 16.0078C117.682 16.3828 117.75 16.8359 117.75 17.3672V23H116.305V17.4375C116.305 16.9948 116.229 16.6406 116.078 16.375C115.932 16.1094 115.724 15.9167 115.453 15.7969C115.182 15.6719 114.865 15.6094 114.5 15.6094C114.073 15.6094 113.716 15.6849 113.43 15.8359C113.143 15.987 112.914 16.1953 112.742 16.4609C112.57 16.7266 112.445 17.0312 112.367 17.375C112.294 17.7135 112.258 18.0729 112.258 18.4531ZM117.734 17.6562L116.766 17.9531C116.771 17.4896 116.846 17.0443 116.992 16.6172C117.143 16.1901 117.359 15.8099 117.641 15.4766C117.927 15.1432 118.279 14.8802 118.695 14.6875C119.112 14.4896 119.589 14.3906 120.125 14.3906C120.578 14.3906 120.979 14.4505 121.328 14.5703C121.682 14.6901 121.979 14.875 122.219 15.125C122.464 15.3698 122.648 15.6849 122.773 16.0703C122.898 16.4557 122.961 16.9141 122.961 17.4453V23H121.508V17.4297C121.508 16.9557 121.432 16.5885 121.281 16.3281C121.135 16.0625 120.927 15.8776 120.656 15.7734C120.391 15.6641 120.073 15.6094 119.703 15.6094C119.385 15.6094 119.104 15.6641 118.859 15.7734C118.615 15.8828 118.409 16.0339 118.242 16.2266C118.076 16.4141 117.948 16.6302 117.859 16.875C117.776 17.1198 117.734 17.3802 117.734 17.6562ZM124.766 18.8672V18.6875C124.766 18.0781 124.854 17.513 125.031 16.9922C125.208 16.4661 125.464 16.0104 125.797 15.625C126.13 15.2344 126.534 14.9323 127.008 14.7188C127.482 14.5 128.013 14.3906 128.602 14.3906C129.195 14.3906 129.729 14.5 130.203 14.7188C130.682 14.9323 131.089 15.2344 131.422 15.625C131.76 16.0104 132.018 16.4661 132.195 16.9922C132.372 17.513 132.461 18.0781 132.461 18.6875V18.8672C132.461 19.4766 132.372 20.0417 132.195 20.5625C132.018 21.0833 131.76 21.5391 131.422 21.9297C131.089 22.3151 130.685 22.6172 130.211 22.8359C129.742 23.0495 129.211 23.1562 128.617 23.1562C128.023 23.1562 127.49 23.0495 127.016 22.8359C126.542 22.6172 126.135 22.3151 125.797 21.9297C125.464 21.5391 125.208 21.0833 125.031 20.5625C124.854 20.0417 124.766 19.4766 124.766 18.8672ZM126.211 18.6875V18.8672C126.211 19.2891 126.26 19.6875 126.359 20.0625C126.458 20.4323 126.607 20.7604 126.805 21.0469C127.008 21.3333 127.26 21.5599 127.562 21.7266C127.865 21.888 128.216 21.9688 128.617 21.9688C129.013 21.9688 129.359 21.888 129.656 21.7266C129.958 21.5599 130.208 21.3333 130.406 21.0469C130.604 20.7604 130.753 20.4323 130.852 20.0625C130.956 19.6875 131.008 19.2891 131.008 18.8672V18.6875C131.008 18.2708 130.956 17.8776 130.852 17.5078C130.753 17.1328 130.602 16.8021 130.398 16.5156C130.201 16.224 129.951 15.9948 129.648 15.8281C129.352 15.6615 129.003 15.5781 128.602 15.5781C128.206 15.5781 127.857 15.6615 127.555 15.8281C127.258 15.9948 127.008 16.224 126.805 16.5156C126.607 16.8021 126.458 17.1328 126.359 17.5078C126.26 17.8776 126.211 18.2708 126.211 18.6875ZM142.133 21.2734L145.484 11.625H147.117L142.906 23H141.742L142.133 21.2734ZM139 11.625L142.32 21.2734L142.734 23H141.57L137.367 11.625H139ZM150 14.5469V23H148.547V14.5469H150ZM148.438 12.3047C148.438 12.0703 148.508 11.8724 148.648 11.7109C148.794 11.5495 149.008 11.4688 149.289 11.4688C149.565 11.4688 149.776 11.5495 149.922 11.7109C150.073 11.8724 150.148 12.0703 150.148 12.3047C150.148 12.5286 150.073 12.7214 149.922 12.8828C149.776 13.0391 149.565 13.1172 149.289 13.1172C149.008 13.1172 148.794 13.0391 148.648 12.8828C148.508 12.7214 148.438 12.5286 148.438 12.3047ZM157.648 21.3594V11H159.102V23H157.773L157.648 21.3594ZM151.961 18.8672V18.7031C151.961 18.0573 152.039 17.4714 152.195 16.9453C152.357 16.4141 152.583 15.9583 152.875 15.5781C153.172 15.1979 153.523 14.9062 153.93 14.7031C154.341 14.4948 154.799 14.3906 155.305 14.3906C155.836 14.3906 156.299 14.4844 156.695 14.6719C157.096 14.8542 157.435 15.1224 157.711 15.4766C157.992 15.8255 158.214 16.2474 158.375 16.7422C158.536 17.237 158.648 17.7969 158.711 18.4219V19.1406C158.654 19.7604 158.542 20.3177 158.375 20.8125C158.214 21.3073 157.992 21.7292 157.711 22.0781C157.435 22.4271 157.096 22.6953 156.695 22.8828C156.294 23.0651 155.826 23.1562 155.289 23.1562C154.794 23.1562 154.341 23.0495 153.93 22.8359C153.523 22.6224 153.172 22.3229 152.875 21.9375C152.583 21.5521 152.357 21.099 152.195 20.5781C152.039 20.0521 151.961 19.4818 151.961 18.8672ZM153.414 18.7031V18.8672C153.414 19.2891 153.456 19.6849 153.539 20.0547C153.628 20.4245 153.763 20.75 153.945 21.0312C154.128 21.3125 154.359 21.5339 154.641 21.6953C154.922 21.8516 155.258 21.9297 155.648 21.9297C156.128 21.9297 156.521 21.8281 156.828 21.625C157.141 21.4219 157.391 21.1536 157.578 20.8203C157.766 20.487 157.911 20.125 158.016 19.7344V17.8516C157.953 17.5651 157.862 17.2891 157.742 17.0234C157.628 16.7526 157.477 16.513 157.289 16.3047C157.107 16.0911 156.88 15.9219 156.609 15.7969C156.344 15.6719 156.029 15.6094 155.664 15.6094C155.268 15.6094 154.927 15.6927 154.641 15.8594C154.359 16.0208 154.128 16.2448 153.945 16.5312C153.763 16.8125 153.628 17.1406 153.539 17.5156C153.456 17.8854 153.414 18.2812 153.414 18.7031ZM164.859 23.1562C164.271 23.1562 163.737 23.0573 163.258 22.8594C162.784 22.6562 162.375 22.3724 162.031 22.0078C161.693 21.6432 161.432 21.2109 161.25 20.7109C161.068 20.2109 160.977 19.6641 160.977 19.0703V18.7422C160.977 18.0547 161.078 17.4427 161.281 16.9062C161.484 16.3646 161.76 15.9062 162.109 15.5312C162.458 15.1562 162.854 14.8724 163.297 14.6797C163.74 14.487 164.198 14.3906 164.672 14.3906C165.276 14.3906 165.797 14.4948 166.234 14.7031C166.677 14.9115 167.039 15.2031 167.32 15.5781C167.602 15.9479 167.81 16.3854 167.945 16.8906C168.081 17.3906 168.148 17.9375 168.148 18.5312V19.1797H161.836V18H166.703V17.8906C166.682 17.5156 166.604 17.151 166.469 16.7969C166.339 16.4427 166.13 16.151 165.844 15.9219C165.557 15.6927 165.167 15.5781 164.672 15.5781C164.344 15.5781 164.042 15.6484 163.766 15.7891C163.49 15.9245 163.253 16.1276 163.055 16.3984C162.857 16.6693 162.703 17 162.594 17.3906C162.484 17.7812 162.43 18.2318 162.43 18.7422V19.0703C162.43 19.4714 162.484 19.849 162.594 20.2031C162.708 20.5521 162.872 20.8594 163.086 21.125C163.305 21.3906 163.568 21.599 163.875 21.75C164.188 21.901 164.542 21.9766 164.938 21.9766C165.448 21.9766 165.88 21.8724 166.234 21.6641C166.589 21.4557 166.898 21.1771 167.164 20.8281L168.039 21.5234C167.857 21.7995 167.625 22.0625 167.344 22.3125C167.062 22.5625 166.716 22.7656 166.305 22.9219C165.898 23.0781 165.417 23.1562 164.859 23.1562ZM169.453 18.8672V18.6875C169.453 18.0781 169.542 17.513 169.719 16.9922C169.896 16.4661 170.151 16.0104 170.484 15.625C170.818 15.2344 171.221 14.9323 171.695 14.7188C172.169 14.5 172.701 14.3906 173.289 14.3906C173.883 14.3906 174.417 14.5 174.891 14.7188C175.37 14.9323 175.776 15.2344 176.109 15.625C176.448 16.0104 176.706 16.4661 176.883 16.9922C177.06 17.513 177.148 18.0781 177.148 18.6875V18.8672C177.148 19.4766 177.06 20.0417 176.883 20.5625C176.706 21.0833 176.448 21.5391 176.109 21.9297C175.776 22.3151 175.372 22.6172 174.898 22.8359C174.43 23.0495 173.898 23.1562 173.305 23.1562C172.711 23.1562 172.177 23.0495 171.703 22.8359C171.229 22.6172 170.823 22.3151 170.484 21.9297C170.151 21.5391 169.896 21.0833 169.719 20.5625C169.542 20.0417 169.453 19.4766 169.453 18.8672ZM170.898 18.6875V18.8672C170.898 19.2891 170.948 19.6875 171.047 20.0625C171.146 20.4323 171.294 20.7604 171.492 21.0469C171.695 21.3333 171.948 21.5599 172.25 21.7266C172.552 21.888 172.904 21.9688 173.305 21.9688C173.701 21.9688 174.047 21.888 174.344 21.7266C174.646 21.5599 174.896 21.3333 175.094 21.0469C175.292 20.7604 175.44 20.4323 175.539 20.0625C175.643 19.6875 175.695 19.2891 175.695 18.8672V18.6875C175.695 18.2708 175.643 17.8776 175.539 17.5078C175.44 17.1328 175.289 16.8021 175.086 16.5156C174.888 16.224 174.638 15.9948 174.336 15.8281C174.039 15.6615 173.69 15.5781 173.289 15.5781C172.893 15.5781 172.544 15.6615 172.242 15.8281C171.945 15.9948 171.695 16.224 171.492 16.5156C171.294 16.8021 171.146 17.1328 171.047 17.5078C170.948 17.8776 170.898 18.2708 170.898 18.6875Z" fill="white"/>
<defs>
<linearGradient id="paint0_linear_3819_4302" x1="5.27322e-08" y1="4.70769" x2="256.384" y2="54.2709" gradientUnits="userSpaceOnUse">
<stop stop-color="#22B4F8" stop-opacity="0.5"/>
<stop offset="1" stop-color="#EDF3C2" stop-opacity="0.4"/>
</linearGradient>
</defs>
</svg>
