<svg width="304" height="71" viewBox="0 0 304 71" fill="none" xmlns="http://www.w3.org/2000/svg">
<path d="M86.2372 34.8859C86.2372 16.7235 71.5136 2 53.3512 2C35.1889 2 20.4653 16.7235 20.4653 34.8859" stroke="url(#paint0_linear_4_19086)" stroke-width="4"/>
<path d="M284.614 34.8857C284.614 53.3411 269.772 68.3021 251.463 68.3021C233.154 68.3021 218.312 53.3411 218.312 34.8857" stroke="url(#paint1_linear_4_19086)" stroke-width="4"/>
<path d="M218.311 34.8859C218.311 16.7235 203.588 2 185.425 2C167.263 2 152.54 16.7235 152.54 34.8859" stroke="url(#paint2_linear_4_19086)" stroke-width="4"/>
<path d="M152.54 34.8857C152.54 53.3411 137.697 68.3021 119.388 68.3021C101.08 68.3021 86.2373 53.3411 86.2373 34.8857" stroke="url(#paint3_linear_4_19086)" stroke-width="4"/>
<path d="M20.0244 53.915C31.0701 53.915 40.0244 44.9607 40.0244 33.915C40.0244 22.8693 31.0701 13.915 20.0244 13.915C8.97872 13.915 0.0244141 22.8693 0.0244141 33.915C0.0244141 44.9607 8.97872 53.915 20.0244 53.915Z" fill="url(#paint4_linear_4_19086)"/>
<path d="M13.3394 41.9262C14.2162 41.0487 15.2574 40.3526 16.4033 39.8776C17.5493 39.4026 18.7777 39.1582 20.0182 39.1582C21.2587 39.1582 22.4868 39.4026 23.6328 39.8776C24.7787 40.3526 25.82 41.0487 26.6968 41.9262" stroke="black" stroke-width="2" stroke-linecap="round" stroke-linejoin="round"/>
<path d="M10.6196 28.2969H29.4347" stroke="black" stroke-width="2" stroke-linecap="round" stroke-linejoin="round"/>
<path d="M14.6827 30.6379C15.3292 30.6379 15.8532 30.1139 15.8532 29.4674C15.8532 28.8209 15.3292 28.2969 14.6827 28.2969C14.0363 28.2969 13.5122 28.8209 13.5122 29.4674C13.5122 30.1139 14.0363 30.6379 14.6827 30.6379Z" fill="black" stroke="black" stroke-width="2" stroke-linecap="round" stroke-linejoin="round"/>
<path d="M24.1442 30.6379C24.7906 30.6379 25.3147 30.1139 25.3147 29.4674C25.3147 28.8209 24.7906 28.2969 24.1442 28.2969C23.4977 28.2969 22.9736 28.8209 22.9736 29.4674C22.9736 30.1139 23.4977 30.6379 24.1442 30.6379Z" fill="black" stroke="black" stroke-width="2" stroke-linecap="round" stroke-linejoin="round"/>
<path d="M86.6748 54C97.7205 54 106.675 45.0457 106.675 34C106.675 22.9543 97.7205 14 86.6748 14C75.6291 14 66.6748 22.9543 66.6748 34C66.6748 45.0457 75.6291 54 86.6748 54Z" fill="url(#paint5_linear_4_19086)"/>
<path d="M82.5713 40.9819C83.1404 40.6765 83.8163 40.4342 84.5602 40.2689C85.304 40.1036 86.1014 40.0186 86.9066 40.0186C87.7119 40.0186 88.5091 40.1036 89.2529 40.2689C89.9968 40.4342 90.6727 40.6765 91.2418 40.9819" stroke="black" stroke-width="2" stroke-linecap="round" stroke-linejoin="round"/>
<path d="M81.9049 30.7219C82.5514 30.7219 83.0754 30.1978 83.0754 29.5514C83.0754 28.9049 82.5514 28.3809 81.9049 28.3809C81.2584 28.3809 80.7344 28.9049 80.7344 29.5514C80.7344 30.1978 81.2584 30.7219 81.9049 30.7219Z" fill="black" stroke="black" stroke-width="2" stroke-linecap="round" stroke-linejoin="round"/>
<path d="M90.7945 30.7219C91.441 30.7219 91.9651 30.1978 91.9651 29.5514C91.9651 28.9049 91.441 28.3809 90.7945 28.3809C90.1481 28.3809 89.624 28.9049 89.624 29.5514C89.624 30.1978 90.1481 30.7219 90.7945 30.7219Z" fill="black" stroke="black" stroke-width="2" stroke-linecap="round" stroke-linejoin="round"/>
<path d="M152.442 54C163.488 54 172.442 45.0457 172.442 34C172.442 22.9543 163.488 14 152.442 14C141.397 14 132.442 22.9543 132.442 34C132.442 45.0457 141.397 54 152.442 54Z" fill="#FFE500"/>
<path d="M151.061 40.7939H155.021" stroke="black" stroke-width="2" stroke-linecap="round" stroke-linejoin="round"/>
<path d="M148.352 30.7219C148.998 30.7219 149.522 30.1978 149.522 29.5514C149.522 28.9049 148.998 28.3809 148.352 28.3809C147.705 28.3809 147.181 28.9049 147.181 29.5514C147.181 30.1978 147.705 30.7219 148.352 30.7219Z" fill="black" stroke="black" stroke-width="2" stroke-linecap="round" stroke-linejoin="round"/>
<path d="M156.45 30.7219C157.096 30.7219 157.62 30.1978 157.62 29.5514C157.62 28.9049 157.096 28.3809 156.45 28.3809C155.803 28.3809 155.279 28.9049 155.279 29.5514C155.279 30.1978 155.803 30.7219 156.45 30.7219Z" fill="black" stroke="black" stroke-width="2" stroke-linecap="round" stroke-linejoin="round"/>
<path d="M218.216 54C229.262 54 238.216 45.0457 238.216 34C238.216 22.9543 229.262 14 218.216 14C207.17 14 198.216 22.9543 198.216 34C198.216 45.0457 207.17 54 218.216 54Z" fill="url(#paint6_linear_4_19086)"/>
<path d="M220.856 40.0186C220.508 40.1713 220.095 40.2924 219.641 40.3751C219.186 40.4577 218.699 40.5003 218.207 40.5003C217.715 40.5003 217.228 40.4577 216.773 40.3751C216.318 40.2924 215.905 40.1713 215.558 40.0186" fill="white"/>
<path d="M220.856 40.0186C220.508 40.1713 220.095 40.2924 219.641 40.3751C219.186 40.4577 218.699 40.5003 218.207 40.5003C217.715 40.5003 217.228 40.4577 216.773 40.3751C216.318 40.2924 215.905 40.1713 215.558 40.0186" stroke="black" stroke-width="2" stroke-linecap="round" stroke-linejoin="round"/>
<path d="M213.443 30.7219C214.089 30.7219 214.613 30.1978 214.613 29.5514C214.613 28.9049 214.089 28.3809 213.443 28.3809C212.797 28.3809 212.272 28.9049 212.272 29.5514C212.272 30.1978 212.797 30.7219 213.443 30.7219Z" fill="black" stroke="black" stroke-width="2" stroke-linecap="round" stroke-linejoin="round"/>
<path d="M222.336 30.7219C222.982 30.7219 223.506 30.1978 223.506 29.5514C223.506 28.9049 222.982 28.3809 222.336 28.3809C221.689 28.3809 221.165 28.9049 221.165 29.5514C221.165 30.1978 221.689 30.7219 222.336 30.7219Z" fill="black" stroke="black" stroke-width="2" stroke-linecap="round" stroke-linejoin="round"/>
<path d="M283.976 54C295.021 54 303.976 45.0457 303.976 34C303.976 22.9543 295.021 14 283.976 14C272.93 14 263.976 22.9543 263.976 34C263.976 45.0457 272.93 54 283.976 54Z" fill="url(#paint7_linear_4_19086)"/>
<path d="M290.676 39.2432C289.799 40.1207 288.758 40.8168 287.612 41.2918C286.466 41.7667 285.237 42.0112 283.997 42.0112C282.756 42.0112 281.528 41.7667 280.382 41.2918C279.236 40.8168 278.195 40.1207 277.318 39.2432" stroke="black" stroke-width="2" stroke-linecap="round" stroke-linejoin="round"/>
<path d="M290.676 39.2432C289.799 40.1207 288.758 40.8168 287.612 41.2918C286.466 41.7667 285.237 42.0112 283.997 42.0112C282.756 42.0112 281.528 41.7667 280.382 41.2918C279.236 40.8168 278.195 40.1207 277.318 39.2432" stroke="black" stroke-opacity="0.2" stroke-width="2" stroke-linecap="round" stroke-linejoin="round"/>
<path d="M279.203 30.7219C279.849 30.7219 280.373 30.1978 280.373 29.5514C280.373 28.9049 279.849 28.3809 279.203 28.3809C278.556 28.3809 278.032 28.9049 278.032 29.5514C278.032 30.1978 278.556 30.7219 279.203 30.7219Z" fill="black" stroke="black" stroke-width="2" stroke-linecap="round" stroke-linejoin="round"/>
<path d="M288.095 30.7219C288.742 30.7219 289.266 30.1978 289.266 29.5514C289.266 28.9049 288.742 28.3809 288.095 28.3809C287.449 28.3809 286.925 28.9049 286.925 29.5514C286.925 30.1978 287.449 30.7219 288.095 30.7219Z" fill="black" stroke="black" stroke-width="2" stroke-linecap="round" stroke-linejoin="round"/>
<path d="M241.175 34C241.175 46.3974 230.907 56.5 218.175 56.5C205.443 56.5 195.175 46.3974 195.175 34C195.175 21.6026 205.443 11.5 218.175 11.5C230.907 11.5 241.175 21.6026 241.175 34Z" stroke="url(#paint8_linear_4_19086)" stroke-width="3"/>
<path d="M241.175 34C241.175 46.3974 230.907 56.5 218.175 56.5C205.443 56.5 195.175 46.3974 195.175 34C195.175 21.6026 205.443 11.5 218.175 11.5C230.907 11.5 241.175 21.6026 241.175 34Z" stroke="url(#paint9_radial_4_19086)" stroke-width="3"/>
<defs>
<linearGradient id="paint0_linear_4_19086" x1="33.3337" y1="13.2111" x2="91.9485" y2="17.5641" gradientUnits="userSpaceOnUse">
<stop stop-color="#48DCFD"/>
<stop offset="1" stop-color="#725BFF"/>
</linearGradient>
<linearGradient id="paint1_linear_4_19086" x1="231.284" y1="46.2777" x2="290.376" y2="50.6313" gradientUnits="userSpaceOnUse">
<stop stop-color="#48DCFD"/>
<stop offset="1" stop-color="#725BFF"/>
</linearGradient>
<linearGradient id="paint2_linear_4_19086" x1="165.408" y1="13.2111" x2="224.023" y2="17.5641" gradientUnits="userSpaceOnUse">
<stop stop-color="#48DCFD"/>
<stop offset="1" stop-color="#725BFF"/>
</linearGradient>
<linearGradient id="paint3_linear_4_19086" x1="99.2095" y1="46.2777" x2="158.302" y2="50.6313" gradientUnits="userSpaceOnUse">
<stop stop-color="#48DCFD"/>
<stop offset="1" stop-color="#725BFF"/>
</linearGradient>
<linearGradient id="paint4_linear_4_19086" x1="20.0244" y1="13.915" x2="20.0244" y2="53.915" gradientUnits="userSpaceOnUse">
<stop offset="0.477265" stop-color="#FF7575"/>
<stop offset="1" stop-color="#FF9F00"/>
</linearGradient>
<linearGradient id="paint5_linear_4_19086" x1="86.6748" y1="14" x2="86.6748" y2="54" gradientUnits="userSpaceOnUse">
<stop stop-color="#FFA51E"/>
<stop offset="1" stop-color="#FFCD1E"/>
</linearGradient>
<linearGradient id="paint6_linear_4_19086" x1="218.216" y1="14" x2="218.216" y2="54" gradientUnits="userSpaceOnUse">
<stop offset="0.326022" stop-color="#2298FF"/>
<stop offset="0.734375" stop-color="#47BDFF"/>
</linearGradient>
<linearGradient id="paint7_linear_4_19086" x1="283.976" y1="14" x2="283.976" y2="54" gradientUnits="userSpaceOnUse">
<stop offset="0.046875" stop-color="#00D1C5"/>
<stop offset="1" stop-color="#5FE452"/>
</linearGradient>
<linearGradient id="paint8_linear_4_19086" x1="193.675" y1="17.3333" x2="209.186" y2="18.2388" gradientUnits="userSpaceOnUse">
<stop offset="0.00741203" stop-color="#CB006E"/>
<stop offset="0.446512" stop-color="#C92F94"/>
<stop offset="0.784762" stop-color="#FF8322"/>
</linearGradient>
<radialGradient id="paint9_radial_4_19086" cx="0" cy="0" r="1" gradientUnits="userSpaceOnUse" gradientTransform="translate(218.175 10) rotate(90) scale(48 49)">
<stop stop-color="white" stop-opacity="0.3"/>
<stop offset="1" stop-color="white" stop-opacity="0"/>
</radialGradient>
</defs>
</svg>
