<svg width="95" height="46" viewBox="0 0 95 46" fill="none" xmlns="http://www.w3.org/2000/svg">
<rect width="95" height="46" rx="8" fill="url(#paint0_linear_3819_4203)"/>
<g clip-path="url(#clip0_3819_4203)">
<path d="M21.8397 11.0011C15.2128 11.0898 9.91291 16.5344 10.0011 23.1615C10.0898 29.7858 15.5339 35.0872 22.1606 34.999C28.7862 34.9098 34.0872 29.4652 33.999 22.8386C33.9103 16.2138 28.4659 10.9127 21.8397 11.0011ZM21.8043 30.3044L21.738 30.3034C20.7175 30.2731 19.998 29.5213 20.0269 28.5159C20.0554 27.5277 20.7923 26.8103 21.7792 26.8103L21.8384 26.8114C22.8874 26.8424 23.5988 27.5867 23.5693 28.621C23.5401 29.612 22.8146 30.3044 21.8043 30.3044ZM26.0969 21.7847C25.8569 22.1256 25.3292 22.549 24.6642 23.0671L23.9319 23.5727C23.5299 23.8852 23.2873 24.1792 23.1963 24.4685C23.1245 24.6962 23.0893 24.7565 23.0831 25.2198L23.082 25.3374H20.286L20.2941 25.1008C20.3282 24.1283 20.3522 23.5562 20.7553 23.0835C21.3876 22.3411 22.7825 21.4429 22.8417 21.4048C23.0416 21.2543 23.2101 21.0829 23.3356 20.8998C23.6291 20.4952 23.759 20.1767 23.759 19.8636C23.759 19.4293 23.6301 19.0275 23.3752 18.6699C23.1303 18.3247 22.6649 18.15 21.9918 18.15C21.3243 18.15 20.8672 18.3618 20.5938 18.7964C20.3126 19.2433 20.1704 19.7126 20.1704 20.192V20.3113H17.2875L17.2927 20.1868C17.3671 18.421 17.9973 17.1495 19.1653 16.4076C19.8991 15.9352 20.8122 15.6957 21.8776 15.6957C23.2722 15.6957 24.4495 16.0346 25.3764 16.7029C26.3155 17.3801 26.7919 18.3944 26.7919 19.7175C26.7919 20.4576 26.5581 21.1528 26.0969 21.7847Z" fill="white"/>
</g>
<path d="M53.752 21.5723V23.8574H46.3301V21.5723H53.752ZM47.1992 15.7812V30H44.2695V15.7812H47.1992ZM55.8418 15.7812V30H52.9219V15.7812H55.8418ZM63.0781 30.1953C62.2578 30.1953 61.5221 30.0651 60.8711 29.8047C60.2201 29.5378 59.6667 29.1699 59.2109 28.7012C58.7617 28.2324 58.4167 27.6888 58.1758 27.0703C57.9349 26.4453 57.8145 25.7812 57.8145 25.0781V24.6875C57.8145 23.8867 57.9284 23.1543 58.1562 22.4902C58.3841 21.8262 58.7096 21.25 59.1328 20.7617C59.5625 20.2734 60.0833 19.8991 60.6953 19.6387C61.3073 19.3717 61.9974 19.2383 62.7656 19.2383C63.5143 19.2383 64.1784 19.362 64.7578 19.6094C65.3372 19.8568 65.8223 20.2083 66.2129 20.6641C66.61 21.1198 66.9095 21.6667 67.1113 22.3047C67.3132 22.9362 67.4141 23.6393 67.4141 24.4141V25.5859H59.0156V23.7109H64.6504V23.4961C64.6504 23.1055 64.5788 22.7572 64.4355 22.4512C64.2988 22.1387 64.0905 21.8913 63.8105 21.709C63.5306 21.5267 63.1725 21.4355 62.7363 21.4355C62.3652 21.4355 62.0462 21.5169 61.7793 21.6797C61.5124 21.8424 61.2943 22.0703 61.125 22.3633C60.9622 22.6562 60.8385 23.0013 60.7539 23.3984C60.6758 23.7891 60.6367 24.2188 60.6367 24.6875V25.0781C60.6367 25.5013 60.6953 25.8919 60.8125 26.25C60.9362 26.6081 61.1087 26.9173 61.3301 27.1777C61.5579 27.4382 61.8314 27.64 62.1504 27.7832C62.4759 27.9264 62.8438 27.998 63.2539 27.998C63.7617 27.998 64.2337 27.9004 64.6699 27.7051C65.1126 27.5033 65.4935 27.2005 65.8125 26.7969L67.1797 28.2812C66.9583 28.6003 66.6556 28.9062 66.2715 29.1992C65.8939 29.4922 65.4382 29.7331 64.9043 29.9219C64.3704 30.1042 63.7617 30.1953 63.0781 30.1953ZM71.9844 15V30H69.1621V15H71.9844ZM77.1211 21.4648V34.0625H74.3086V19.4336H76.916L77.1211 21.4648ZM83.8105 24.5996V24.8047C83.8105 25.5729 83.7194 26.2858 83.5371 26.9434C83.3613 27.6009 83.1009 28.1738 82.7559 28.6621C82.4108 29.1439 81.9811 29.5215 81.4668 29.7949C80.959 30.0618 80.373 30.1953 79.709 30.1953C79.0645 30.1953 78.5046 30.0651 78.0293 29.8047C77.554 29.5443 77.1536 29.1797 76.8281 28.7109C76.5091 28.2357 76.252 27.6855 76.0566 27.0605C75.8613 26.4355 75.7116 25.765 75.6074 25.0488V24.5117C75.7116 23.7435 75.8613 23.0404 76.0566 22.4023C76.252 21.7578 76.5091 21.2012 76.8281 20.7324C77.1536 20.2572 77.5508 19.8893 78.0195 19.6289C78.4948 19.3685 79.0514 19.2383 79.6895 19.2383C80.36 19.2383 80.9492 19.3652 81.457 19.6191C81.9714 19.873 82.401 20.2376 82.7461 20.7129C83.0977 21.1882 83.3613 21.7546 83.5371 22.4121C83.7194 23.0697 83.8105 23.7988 83.8105 24.5996ZM80.9883 24.8047V24.5996C80.9883 24.1504 80.9492 23.737 80.8711 23.3594C80.7995 22.9753 80.6823 22.64 80.5195 22.3535C80.3633 22.0671 80.1549 21.8457 79.8945 21.6895C79.6406 21.5267 79.3314 21.4453 78.9668 21.4453C78.5827 21.4453 78.2539 21.5072 77.9805 21.6309C77.7135 21.7546 77.4954 21.9336 77.3262 22.168C77.1569 22.4023 77.0299 22.6823 76.9453 23.0078C76.8607 23.3333 76.8086 23.7012 76.7891 24.1113V25.4688C76.8216 25.9505 76.9128 26.3835 77.0625 26.7676C77.2122 27.1452 77.4434 27.4447 77.7559 27.666C78.0684 27.8874 78.4785 27.998 78.9863 27.998C79.3574 27.998 79.6699 27.9167 79.9238 27.7539C80.1777 27.5846 80.3828 27.3535 80.5391 27.0605C80.7018 26.7676 80.8158 26.429 80.8809 26.0449C80.9525 25.6608 80.9883 25.2474 80.9883 24.8047Z" fill="white"/>
<defs>
<linearGradient id="paint0_linear_3819_4203" x1="2.66466e-08" y1="6.01539" x2="133.617" y2="16.2304" gradientUnits="userSpaceOnUse">
<stop stop-color="#22B4F8" stop-opacity="0.5"/>
<stop offset="1" stop-color="#EDF3C2" stop-opacity="0.4"/>
</linearGradient>
<clipPath id="clip0_3819_4203">
<rect width="24" height="24" fill="white" transform="translate(10 11)"/>
</clipPath>
</defs>
</svg>
