<svg width="20" height="6" viewBox="0 0 20 6" fill="none" xmlns="http://www.w3.org/2000/svg">
<path d="M10.0003 0.666016C8.71699 0.666016 7.66699 1.71602 7.66699 2.99935C7.66699 4.28268 8.71699 5.33268 10.0003 5.33268C11.2837 5.33268 12.3337 4.28268 12.3337 2.99935C12.3337 1.71602 11.2837 0.666016 10.0003 0.666016ZM17.0003 0.666016C15.717 0.666016 14.667 1.71602 14.667 2.99935C14.667 4.28268 15.717 5.33268 17.0003 5.33268C18.2837 5.33268 19.3337 4.28268 19.3337 2.99935C19.3337 1.71602 18.2837 0.666016 17.0003 0.666016ZM3.00033 0.666016C1.71699 0.666016 0.666992 1.71602 0.666992 2.99935C0.666992 4.28268 1.71699 5.33268 3.00033 5.33268C4.28366 5.33268 5.33366 4.28268 5.33366 2.99935C5.33366 1.71602 4.28366 0.666016 3.00033 0.666016Z" fill="white"/>
</svg>
