<svg width="840" height="168" viewBox="0 0 840 168" fill="none" xmlns="http://www.w3.org/2000/svg">
<rect x="0.5" y="0.5" width="839" height="167" rx="59.5" fill="url(#paint0_linear_3819_4392)" fill-opacity="0.1"/>
<rect x="0.5" y="0.5" width="839" height="167" rx="59.5" stroke="url(#paint1_linear_3819_4392)"/>
<line x1="72.5" y1="96.0312" x2="72.5" y2="71.9678" stroke="#0077C2" stroke-width="5" stroke-linecap="round"/>
<line x1="87.5" y1="123.329" x2="87.5" y2="44.6716" stroke="#0077C2" stroke-width="5" stroke-linecap="round"/>
<line x1="102.5" y1="117.607" x2="102.5" y2="50.3918" stroke="#0077C2" stroke-width="5" stroke-linecap="round"/>
<line x1="117.5" y1="109.831" x2="117.5" y2="58.1697" stroke="#0077C2" stroke-width="5" stroke-linecap="round"/>
<line x1="132.5" y1="121.7" x2="132.5" y2="46.2998" stroke="#0077C2" stroke-width="5" stroke-linecap="round"/>
<line x1="147.5" y1="104.534" x2="147.5" y2="63.466" stroke="#0077C2" stroke-width="5" stroke-linecap="round"/>
<line x1="162.5" y1="102.223" x2="162.5" y2="65.777" stroke="#0077C2" stroke-width="5" stroke-linecap="round"/>
<line x1="177.5" y1="95.1279" x2="177.5" y2="72.8711" stroke="#0077C2" stroke-width="5" stroke-linecap="round"/>
<line x1="192.5" y1="103.938" x2="192.5" y2="64.0612" stroke="#0077C2" stroke-width="5" stroke-linecap="round"/>
<line x1="207.5" y1="99.5244" x2="207.5" y2="68.4747" stroke="#0077C2" stroke-width="5" stroke-linecap="round"/>
<line x1="222.5" y1="103.247" x2="222.5" y2="64.7535" stroke="#0077C2" stroke-width="5" stroke-linecap="round"/>
<line x1="237.5" y1="101.035" x2="237.5" y2="66.9656" stroke="#0077C2" stroke-width="5" stroke-linecap="round"/>
<line x1="252.5" y1="111.827" x2="252.5" y2="56.1731" stroke="#0077C2" stroke-width="5" stroke-linecap="round"/>
<line x1="267.5" y1="121.515" x2="267.5" y2="46.4845" stroke="#0077C2" stroke-width="5" stroke-linecap="round"/>
<line x1="282.5" y1="113.962" x2="282.5" y2="54.0371" stroke="#0077C2" stroke-width="5" stroke-linecap="round"/>
<line x1="297.5" y1="107.079" x2="297.5" y2="60.9209" stroke="#0077C2" stroke-width="5" stroke-linecap="round"/>
<line x1="312.5" y1="102" x2="312.5" y2="66.0001" stroke="#0077C2" stroke-width="5" stroke-linecap="round"/>
<line x1="327.5" y1="95.1387" x2="327.5" y2="72.8619" stroke="#0077C2" stroke-width="5" stroke-linecap="round"/>
<line x1="342.5" y1="106.795" x2="342.5" y2="61.2051" stroke="#0077C2" stroke-width="5" stroke-linecap="round"/>
<line x1="357.5" y1="96.1504" x2="357.5" y2="71.8487" stroke="#0077C2" stroke-width="5" stroke-linecap="round"/>
<line x1="372.5" y1="101.144" x2="372.5" y2="66.8556" stroke="#0077C2" stroke-width="5" stroke-linecap="round"/>
<line x1="387.5" y1="105.035" x2="387.5" y2="62.9652" stroke="#0077C2" stroke-width="5" stroke-linecap="round"/>
<line x1="402.5" y1="92.9863" x2="402.5" y2="75.0129" stroke="#0077C2" stroke-width="5" stroke-linecap="round"/>
<line x1="417.5" y1="116.438" x2="417.5" y2="51.5618" stroke="#0077C2" stroke-width="5" stroke-linecap="round"/>
<line x1="432.5" y1="123.509" x2="432.5" y2="44.4915" stroke="#0077C2" stroke-width="5" stroke-linecap="round"/>
<line x1="447.5" y1="120.578" x2="447.5" y2="47.4209" stroke="#0077C2" stroke-width="5" stroke-linecap="round"/>
<line x1="462.5" y1="126.051" x2="462.5" y2="41.9489" stroke="#0077C2" stroke-width="5" stroke-linecap="round"/>
<line x1="477.5" y1="110.378" x2="477.5" y2="57.6215" stroke="#0077C2" stroke-width="5" stroke-linecap="round"/>
<line x1="492.5" y1="104.218" x2="492.5" y2="63.7816" stroke="#0077C2" stroke-width="5" stroke-linecap="round"/>
<line x1="507.5" y1="125.249" x2="507.5" y2="42.7518" stroke="#0077C2" stroke-width="5" stroke-linecap="round"/>
<line x1="522.5" y1="101.647" x2="522.5" y2="66.353" stroke="#0077C2" stroke-width="5" stroke-linecap="round"/>
<line x1="537.5" y1="107.516" x2="537.5" y2="60.4837" stroke="#0077C2" stroke-width="5" stroke-linecap="round"/>
<line x1="552.5" y1="122.933" x2="552.5" y2="45.0675" stroke="#0077C2" stroke-width="5" stroke-linecap="round"/>
<line x1="567.5" y1="108.403" x2="567.5" y2="59.5969" stroke="#0077C2" stroke-width="5" stroke-linecap="round"/>
<line x1="582.5" y1="108.5" x2="582.5" y2="59.4995" stroke="#0077C2" stroke-width="5" stroke-linecap="round"/>
<line x1="597.5" y1="102.923" x2="597.5" y2="65.0766" stroke="#0077C2" stroke-width="5" stroke-linecap="round"/>
<line x1="612.5" y1="112.674" x2="612.5" y2="55.3264" stroke="#0077C2" stroke-width="5" stroke-linecap="round"/>
<line x1="627.5" y1="115.661" x2="627.5" y2="52.3383" stroke="#0077C2" stroke-width="5" stroke-linecap="round"/>
<line x1="642.5" y1="123.607" x2="642.5" y2="44.3931" stroke="#0077C2" stroke-width="5" stroke-linecap="round"/>
<line x1="657.5" y1="94.3291" x2="657.5" y2="73.6717" stroke="#0077C2" stroke-width="5" stroke-linecap="round"/>
<line x1="672.5" y1="106.981" x2="672.5" y2="61.0193" stroke="#0077C2" stroke-width="5" stroke-linecap="round"/>
<line x1="687.5" y1="94.4619" x2="687.5" y2="73.5388" stroke="#0077C2" stroke-width="5" stroke-linecap="round"/>
<line x1="702.5" y1="113.402" x2="702.5" y2="54.5969" stroke="#0077C2" stroke-width="5" stroke-linecap="round"/>
<line x1="717.5" y1="114.783" x2="717.5" y2="53.2169" stroke="#0077C2" stroke-width="5" stroke-linecap="round"/>
<line x1="732.5" y1="108.859" x2="732.5" y2="59.1409" stroke="#0077C2" stroke-width="5" stroke-linecap="round"/>
<line x1="747.5" y1="105.415" x2="747.5" y2="62.5849" stroke="#0077C2" stroke-width="5" stroke-linecap="round"/>
<line x1="762.5" y1="93.6445" x2="762.5" y2="74.3559" stroke="#0077C2" stroke-width="5" stroke-linecap="round"/>
<defs>
<linearGradient id="paint0_linear_3819_4392" x1="420" y1="-6.85919e-06" x2="444.027" y2="130.353" gradientUnits="userSpaceOnUse">
<stop stop-color="#0077C2"/>
<stop offset="1" stop-color="#70757A"/>
</linearGradient>
<linearGradient id="paint1_linear_3819_4392" x1="475.537" y1="113.514" x2="718.334" y2="-77.2803" gradientUnits="userSpaceOnUse">
<stop stop-color="#0077C2" stop-opacity="0.4"/>
<stop offset="1" stop-color="#4470E2" stop-opacity="0.05"/>
</linearGradient>
</defs>
</svg>
