<svg width="94" height="38" viewBox="0 0 94 38" fill="none" xmlns="http://www.w3.org/2000/svg">
<rect x="1" y="0.998047" width="34.9375" height="35.5625" rx="17.4688" stroke="url(#paint0_linear_3819_4222)" stroke-width="2"/>
<path d="M14.875 11.5918C14.875 9.60702 16.484 7.99805 18.4688 7.99805C20.4535 7.99805 22.0625 9.60702 22.0625 11.5918V19.498C22.0625 21.4828 20.4535 23.0918 18.4688 23.0918C16.484 23.0918 14.875 21.4828 14.875 19.498V11.5918Z" fill="url(#paint1_linear_3819_4222)"/>
<path d="M12.7188 17.3418C13.1157 17.3418 13.4375 17.6636 13.4375 18.0605V19.498C13.4375 22.2767 15.6901 24.5293 18.4688 24.5293C21.2474 24.5293 23.5 22.2767 23.5 19.498V18.0605C23.5 17.6636 23.8218 17.3418 24.2188 17.3418C24.6157 17.3418 24.9375 17.6636 24.9375 18.0605V19.498C24.9375 22.8277 22.4218 25.5698 19.1875 25.9273V28.123H22.0625C22.4595 28.123 22.7812 28.4448 22.7812 28.8418C22.7812 29.2388 22.4595 29.5605 22.0625 29.5605H14.875C14.478 29.5605 14.1562 29.2388 14.1562 28.8418C14.1562 28.4448 14.478 28.123 14.875 28.123H17.75V25.9273C14.5157 25.5698 12 22.8277 12 19.498V18.0605C12 17.6636 12.3218 17.3418 12.7188 17.3418Z" fill="url(#paint2_linear_3819_4222)"/>
<path d="M57.8867 18.3379V19.0117C57.8867 20.0924 57.7402 21.0625 57.4473 21.9219C57.1543 22.7812 56.7409 23.5137 56.207 24.1191C55.6732 24.7181 55.0352 25.1771 54.293 25.4961C53.5573 25.8151 52.7402 25.9746 51.8418 25.9746C50.9499 25.9746 50.1328 25.8151 49.3906 25.4961C48.6549 25.1771 48.0169 24.7181 47.4766 24.1191C46.9362 23.5137 46.5163 22.7812 46.2168 21.9219C45.9238 21.0625 45.7773 20.0924 45.7773 19.0117V18.3379C45.7773 17.2507 45.9238 16.2806 46.2168 15.4277C46.5098 14.5684 46.9232 13.8359 47.457 13.2305C47.9974 12.625 48.6354 12.1628 49.3711 11.8438C50.1133 11.5247 50.9303 11.3652 51.8223 11.3652C52.7207 11.3652 53.5378 11.5247 54.2734 11.8438C55.0156 12.1628 55.6536 12.625 56.1875 13.2305C56.7279 13.8359 57.1445 14.5684 57.4375 15.4277C57.737 16.2806 57.8867 17.2507 57.8867 18.3379ZM54.9277 19.0117V18.3184C54.9277 17.5632 54.8594 16.8991 54.7227 16.3262C54.5859 15.7533 54.3841 15.2715 54.1172 14.8809C53.8503 14.4902 53.5247 14.1973 53.1406 14.002C52.7565 13.8001 52.3171 13.6992 51.8223 13.6992C51.3275 13.6992 50.888 13.8001 50.5039 14.002C50.1263 14.1973 49.804 14.4902 49.5371 14.8809C49.2767 15.2715 49.0781 15.7533 48.9414 16.3262C48.8047 16.8991 48.7363 17.5632 48.7363 18.3184V19.0117C48.7363 19.7604 48.8047 20.4245 48.9414 21.0039C49.0781 21.5768 49.2799 22.0618 49.5469 22.459C49.8138 22.8496 50.1393 23.1458 50.5234 23.3477C50.9076 23.5495 51.347 23.6504 51.8418 23.6504C52.3366 23.6504 52.776 23.5495 53.1602 23.3477C53.5443 23.1458 53.8665 22.8496 54.127 22.459C54.3874 22.0618 54.5859 21.5768 54.7227 21.0039C54.8594 20.4245 54.9277 19.7604 54.9277 19.0117ZM62.6328 17.5176V25.7793H59.8203V15.2129H62.4668L62.6328 17.5176ZM65.8164 15.1445L65.7676 17.752C65.6309 17.7324 65.4648 17.7161 65.2695 17.7031C65.0807 17.6836 64.9082 17.6738 64.752 17.6738C64.3548 17.6738 64.0098 17.7259 63.7168 17.8301C63.4303 17.9277 63.1895 18.0742 62.9941 18.2695C62.8053 18.4648 62.6621 18.7025 62.5645 18.9824C62.4733 19.2624 62.4212 19.5814 62.4082 19.9395L61.8418 19.7637C61.8418 19.0801 61.9102 18.4518 62.0469 17.8789C62.1836 17.2995 62.3822 16.7949 62.6426 16.3652C62.9095 15.9355 63.235 15.6035 63.6191 15.3691C64.0033 15.1348 64.4427 15.0176 64.9375 15.0176C65.0938 15.0176 65.2533 15.0306 65.416 15.0566C65.5788 15.0762 65.7122 15.1055 65.8164 15.1445ZM70.1133 15.2129V25.7793H67.291V15.2129H70.1133ZM67.1152 12.459C67.1152 12.0488 67.2585 11.7103 67.5449 11.4434C67.8314 11.1764 68.2155 11.043 68.6973 11.043C69.1725 11.043 69.5534 11.1764 69.8398 11.4434C70.1328 11.7103 70.2793 12.0488 70.2793 12.459C70.2793 12.8691 70.1328 13.2077 69.8398 13.4746C69.5534 13.7415 69.1725 13.875 68.6973 13.875C68.2155 13.875 67.8314 13.7415 67.5449 13.4746C67.2585 13.2077 67.1152 12.8691 67.1152 12.459ZM71.9883 20.6035V20.3984C71.9883 19.6237 72.099 18.9108 72.3203 18.2598C72.5417 17.6022 72.8639 17.0326 73.2871 16.5508C73.7103 16.069 74.2311 15.6947 74.8496 15.4277C75.4681 15.1543 76.1777 15.0176 76.9785 15.0176C77.7793 15.0176 78.4922 15.1543 79.1172 15.4277C79.7422 15.6947 80.2663 16.069 80.6895 16.5508C81.1191 17.0326 81.4447 17.6022 81.666 18.2598C81.8874 18.9108 81.998 19.6237 81.998 20.3984V20.6035C81.998 21.3717 81.8874 22.0846 81.666 22.7422C81.4447 23.3932 81.1191 23.9629 80.6895 24.4512C80.2663 24.9329 79.7454 25.3073 79.127 25.5742C78.5085 25.8411 77.7988 25.9746 76.998 25.9746C76.1973 25.9746 75.4844 25.8411 74.8594 25.5742C74.2409 25.3073 73.7168 24.9329 73.2871 24.4512C72.8639 23.9629 72.5417 23.3932 72.3203 22.7422C72.099 22.0846 71.9883 21.3717 71.9883 20.6035ZM74.8008 20.3984V20.6035C74.8008 21.0462 74.8398 21.4596 74.918 21.8438C74.9961 22.2279 75.1198 22.5664 75.2891 22.8594C75.4648 23.1458 75.6927 23.3704 75.9727 23.5332C76.2526 23.696 76.5944 23.7773 76.998 23.7773C77.3887 23.7773 77.724 23.696 78.0039 23.5332C78.2839 23.3704 78.5085 23.1458 78.6777 22.8594C78.847 22.5664 78.9707 22.2279 79.0488 21.8438C79.1335 21.4596 79.1758 21.0462 79.1758 20.6035V20.3984C79.1758 19.9688 79.1335 19.5651 79.0488 19.1875C78.9707 18.8034 78.8438 18.4648 78.668 18.1719C78.4987 17.8724 78.2741 17.638 77.9941 17.4688C77.7142 17.2995 77.3757 17.2148 76.9785 17.2148C76.5814 17.2148 76.2428 17.2995 75.9629 17.4688C75.6895 17.638 75.4648 17.8724 75.2891 18.1719C75.1198 18.4648 74.9961 18.8034 74.918 19.1875C74.8398 19.5651 74.8008 19.9688 74.8008 20.3984ZM86.4805 17.4688V25.7793H83.668V15.2129H86.3047L86.4805 17.4688ZM86.0703 20.125H85.3086C85.3086 19.3438 85.4095 18.6406 85.6113 18.0156C85.8132 17.3841 86.0964 16.847 86.4609 16.4043C86.8255 15.9551 87.2585 15.6133 87.7598 15.3789C88.2676 15.138 88.834 15.0176 89.459 15.0176C89.9538 15.0176 90.4062 15.0892 90.8164 15.2324C91.2266 15.3757 91.5781 15.6035 91.8711 15.916C92.1706 16.2285 92.3984 16.6419 92.5547 17.1562C92.7174 17.6706 92.7988 18.2988 92.7988 19.041V25.7793H89.9668V19.0312C89.9668 18.5625 89.9017 18.1979 89.7715 17.9375C89.6413 17.6771 89.4492 17.4948 89.1953 17.3906C88.9479 17.2799 88.6419 17.2246 88.2773 17.2246C87.8997 17.2246 87.571 17.2995 87.291 17.4492C87.0176 17.599 86.7897 17.8073 86.6074 18.0742C86.4316 18.3346 86.2982 18.6406 86.207 18.9922C86.1159 19.3438 86.0703 19.7214 86.0703 20.125Z" fill="white"/>
<defs>
<linearGradient id="paint0_linear_3819_4222" x1="1.03606e-08" y1="4.91007" x2="52.1867" y2="6.80977" gradientUnits="userSpaceOnUse">
<stop stop-color="#22B4F8"/>
<stop offset="1" stop-color="#EDF3C2"/>
</linearGradient>
<linearGradient id="paint1_linear_3819_4222" x1="12" y1="10.8178" x2="30.2938" y2="11.2241" gradientUnits="userSpaceOnUse">
<stop stop-color="#22B4F8"/>
<stop offset="1" stop-color="#EDF3C2"/>
</linearGradient>
<linearGradient id="paint2_linear_3819_4222" x1="12" y1="10.8178" x2="30.2938" y2="11.2241" gradientUnits="userSpaceOnUse">
<stop stop-color="#22B4F8"/>
<stop offset="1" stop-color="#EDF3C2"/>
</linearGradient>
</defs>
</svg>
