<svg width="345" height="54" viewBox="0 0 345 54" fill="none" xmlns="http://www.w3.org/2000/svg">
<rect width="345" height="54" rx="15" fill="url(#paint0_linear_3819_4236)"/>
<rect x="1" y="1" width="343" height="52" rx="14" stroke="white" stroke-opacity="0.5" stroke-width="2"/>
<path d="M108.672 30.2793C108.672 30.0254 108.633 29.7975 108.555 29.5957C108.483 29.3874 108.346 29.1986 108.145 29.0293C107.943 28.8535 107.66 28.681 107.295 28.5117C106.93 28.3424 106.458 28.1667 105.879 27.9844C105.234 27.776 104.622 27.5417 104.043 27.2812C103.47 27.0208 102.962 26.7181 102.52 26.373C102.083 26.0215 101.738 25.6146 101.484 25.1523C101.237 24.6901 101.113 24.153 101.113 23.541C101.113 22.9486 101.243 22.4115 101.504 21.9297C101.764 21.4414 102.129 21.0247 102.598 20.6797C103.066 20.3281 103.62 20.0579 104.258 19.8691C104.902 19.6803 105.609 19.5859 106.377 19.5859C107.425 19.5859 108.34 19.7747 109.121 20.1523C109.902 20.5299 110.508 21.0475 110.938 21.7051C111.374 22.3626 111.592 23.1146 111.592 23.9609H108.682C108.682 23.5443 108.594 23.1797 108.418 22.8672C108.249 22.5482 107.988 22.2975 107.637 22.1152C107.292 21.9329 106.855 21.8418 106.328 21.8418C105.82 21.8418 105.397 21.9199 105.059 22.0762C104.72 22.2259 104.466 22.431 104.297 22.6914C104.128 22.9453 104.043 23.2318 104.043 23.5508C104.043 23.7917 104.102 24.0098 104.219 24.2051C104.342 24.4004 104.525 24.5827 104.766 24.752C105.007 24.9212 105.303 25.0807 105.654 25.2305C106.006 25.3802 106.413 25.5267 106.875 25.6699C107.65 25.9043 108.33 26.168 108.916 26.4609C109.508 26.7539 110.003 27.0827 110.4 27.4473C110.798 27.8118 111.097 28.2253 111.299 28.6875C111.501 29.1497 111.602 29.6738 111.602 30.2598C111.602 30.8783 111.481 31.4316 111.24 31.9199C110.999 32.4082 110.651 32.8216 110.195 33.1602C109.74 33.4987 109.196 33.7559 108.564 33.9316C107.933 34.1074 107.227 34.1953 106.445 34.1953C105.742 34.1953 105.049 34.1042 104.365 33.9219C103.682 33.7331 103.06 33.4499 102.5 33.0723C101.947 32.6947 101.504 32.2129 101.172 31.627C100.84 31.041 100.674 30.3477 100.674 29.5469H103.613C103.613 29.9896 103.682 30.3639 103.818 30.6699C103.955 30.9759 104.147 31.2233 104.395 31.4121C104.648 31.6009 104.948 31.7376 105.293 31.8223C105.645 31.9069 106.029 31.9492 106.445 31.9492C106.953 31.9492 107.37 31.8776 107.695 31.7344C108.027 31.5911 108.271 31.3926 108.428 31.1387C108.59 30.8848 108.672 30.5983 108.672 30.2793ZM118.594 23.4336V25.4258H112.441V23.4336H118.594ZM113.965 20.8262H116.777V30.8164C116.777 31.1224 116.816 31.3568 116.895 31.5195C116.979 31.6823 117.103 31.7962 117.266 31.8613C117.428 31.9199 117.633 31.9492 117.881 31.9492C118.057 31.9492 118.213 31.9427 118.35 31.9297C118.493 31.9102 118.613 31.8906 118.711 31.8711L118.721 33.9414C118.48 34.0195 118.219 34.0814 117.939 34.127C117.66 34.1725 117.35 34.1953 117.012 34.1953C116.393 34.1953 115.853 34.0944 115.391 33.8926C114.935 33.6842 114.583 33.3522 114.336 32.8965C114.089 32.4408 113.965 31.8418 113.965 31.0996V20.8262ZM125.898 31.6172V26.9102C125.898 26.5716 125.843 26.2819 125.732 26.041C125.622 25.7936 125.449 25.6016 125.215 25.4648C124.987 25.3281 124.691 25.2598 124.326 25.2598C124.014 25.2598 123.743 25.3151 123.516 25.4258C123.288 25.5299 123.112 25.6829 122.988 25.8848C122.865 26.0801 122.803 26.3112 122.803 26.5781H119.99C119.99 26.1289 120.094 25.7025 120.303 25.2988C120.511 24.8952 120.814 24.5404 121.211 24.2344C121.608 23.9219 122.08 23.6777 122.627 23.502C123.18 23.3262 123.799 23.2383 124.482 23.2383C125.303 23.2383 126.032 23.375 126.67 23.6484C127.308 23.9219 127.809 24.332 128.174 24.8789C128.545 25.4258 128.73 26.1094 128.73 26.9297V31.4512C128.73 32.0306 128.766 32.5059 128.838 32.877C128.91 33.2415 129.014 33.5605 129.15 33.834V34H126.309C126.172 33.7135 126.068 33.3555 125.996 32.9258C125.931 32.4896 125.898 32.0534 125.898 31.6172ZM126.27 27.5645L126.289 29.1562H124.717C124.346 29.1562 124.023 29.1986 123.75 29.2832C123.477 29.3678 123.252 29.4883 123.076 29.6445C122.9 29.7943 122.77 29.9701 122.686 30.1719C122.607 30.3737 122.568 30.5951 122.568 30.8359C122.568 31.0768 122.624 31.2949 122.734 31.4902C122.845 31.679 123.005 31.8288 123.213 31.9395C123.421 32.0436 123.665 32.0957 123.945 32.0957C124.368 32.0957 124.736 32.0111 125.049 31.8418C125.361 31.6725 125.602 31.4642 125.771 31.2168C125.947 30.9694 126.038 30.735 126.045 30.5137L126.787 31.7051C126.683 31.972 126.54 32.2487 126.357 32.5352C126.182 32.8216 125.957 33.0918 125.684 33.3457C125.41 33.5931 125.081 33.7982 124.697 33.9609C124.313 34.1172 123.857 34.1953 123.33 34.1953C122.66 34.1953 122.051 34.0618 121.504 33.7949C120.964 33.5215 120.534 33.1471 120.215 32.6719C119.902 32.1901 119.746 31.6432 119.746 31.0312C119.746 30.4779 119.85 29.9863 120.059 29.5566C120.267 29.127 120.573 28.7656 120.977 28.4727C121.387 28.1732 121.898 27.9486 122.51 27.7988C123.122 27.6426 123.831 27.5645 124.639 27.5645H126.27ZM133.711 25.7383V34H130.898V23.4336H133.545L133.711 25.7383ZM136.895 23.3652L136.846 25.9727C136.709 25.9531 136.543 25.9368 136.348 25.9238C136.159 25.9043 135.986 25.8945 135.83 25.8945C135.433 25.8945 135.088 25.9466 134.795 26.0508C134.508 26.1484 134.268 26.2949 134.072 26.4902C133.883 26.6855 133.74 26.9232 133.643 27.2031C133.551 27.4831 133.499 27.8021 133.486 28.1602L132.92 27.9844C132.92 27.3008 132.988 26.6725 133.125 26.0996C133.262 25.5202 133.46 25.0156 133.721 24.5859C133.988 24.1562 134.313 23.8242 134.697 23.5898C135.081 23.3555 135.521 23.2383 136.016 23.2383C136.172 23.2383 136.331 23.2513 136.494 23.2773C136.657 23.2969 136.79 23.3262 136.895 23.3652ZM143.887 23.4336V25.4258H137.734V23.4336H143.887ZM139.258 20.8262H142.07V30.8164C142.07 31.1224 142.109 31.3568 142.188 31.5195C142.272 31.6823 142.396 31.7962 142.559 31.8613C142.721 31.9199 142.926 31.9492 143.174 31.9492C143.35 31.9492 143.506 31.9427 143.643 31.9297C143.786 31.9102 143.906 31.8906 144.004 31.8711L144.014 33.9414C143.773 34.0195 143.512 34.0814 143.232 34.127C142.952 34.1725 142.643 34.1953 142.305 34.1953C141.686 34.1953 141.146 34.0944 140.684 33.8926C140.228 33.6842 139.876 33.3522 139.629 32.8965C139.382 32.4408 139.258 31.8418 139.258 31.0996V20.8262ZM156.426 22.2129L152.559 34H149.443L154.727 19.7812H156.709L156.426 22.2129ZM159.639 34L155.762 22.2129L155.449 19.7812H157.451L162.764 34H159.639ZM159.463 28.707V31.002H151.953V28.707H159.463ZM166.348 25.6895V34H163.535V23.4336H166.172L166.348 25.6895ZM165.938 28.3457H165.176C165.176 27.5645 165.277 26.8613 165.479 26.2363C165.68 25.6048 165.964 25.0677 166.328 24.625C166.693 24.1758 167.126 23.834 167.627 23.5996C168.135 23.3587 168.701 23.2383 169.326 23.2383C169.821 23.2383 170.273 23.3099 170.684 23.4531C171.094 23.5964 171.445 23.8242 171.738 24.1367C172.038 24.4492 172.266 24.8626 172.422 25.377C172.585 25.8913 172.666 26.5195 172.666 27.2617V34H169.834V27.252C169.834 26.7832 169.769 26.4186 169.639 26.1582C169.508 25.8978 169.316 25.7155 169.062 25.6113C168.815 25.5007 168.509 25.4453 168.145 25.4453C167.767 25.4453 167.438 25.5202 167.158 25.6699C166.885 25.8197 166.657 26.028 166.475 26.2949C166.299 26.5553 166.165 26.8613 166.074 27.2129C165.983 27.5645 165.938 27.9421 165.938 28.3457ZM180.518 31.0801C180.518 30.8783 180.459 30.696 180.342 30.5332C180.225 30.3704 180.007 30.2207 179.688 30.084C179.375 29.9408 178.923 29.8105 178.33 29.6934C177.796 29.5762 177.298 29.4297 176.836 29.2539C176.38 29.0716 175.983 28.8535 175.645 28.5996C175.312 28.3457 175.052 28.0462 174.863 27.7012C174.674 27.3496 174.58 26.9492 174.58 26.5C174.58 26.0573 174.674 25.6406 174.863 25.25C175.059 24.8594 175.335 24.5143 175.693 24.2148C176.058 23.9089 176.501 23.6712 177.021 23.502C177.549 23.3262 178.141 23.2383 178.799 23.2383C179.717 23.2383 180.505 23.3848 181.162 23.6777C181.826 23.9707 182.334 24.3743 182.686 24.8887C183.044 25.3965 183.223 25.9759 183.223 26.627H180.41C180.41 26.3535 180.352 26.1094 180.234 25.8945C180.124 25.6732 179.948 25.5007 179.707 25.377C179.473 25.2467 179.167 25.1816 178.789 25.1816C178.477 25.1816 178.206 25.237 177.979 25.3477C177.751 25.4518 177.575 25.5951 177.451 25.7773C177.334 25.9531 177.275 26.1484 177.275 26.3633C177.275 26.526 177.308 26.6725 177.373 26.8027C177.445 26.9264 177.559 27.0404 177.715 27.1445C177.871 27.2487 178.073 27.3464 178.32 27.4375C178.574 27.5221 178.887 27.6003 179.258 27.6719C180.02 27.8281 180.7 28.0332 181.299 28.2871C181.898 28.5345 182.373 28.873 182.725 29.3027C183.076 29.7259 183.252 30.2826 183.252 30.9727C183.252 31.4414 183.148 31.8711 182.939 32.2617C182.731 32.6523 182.432 32.9941 182.041 33.2871C181.65 33.5736 181.182 33.7982 180.635 33.9609C180.094 34.1172 179.486 34.1953 178.809 34.1953C177.826 34.1953 176.992 34.0195 176.309 33.668C175.632 33.3164 175.117 32.8704 174.766 32.3301C174.421 31.7832 174.248 31.2233 174.248 30.6504H176.914C176.927 31.0345 177.025 31.3438 177.207 31.5781C177.396 31.8125 177.633 31.9818 177.92 32.0859C178.213 32.1901 178.529 32.2422 178.867 32.2422C179.232 32.2422 179.535 32.1934 179.775 32.0957C180.016 31.9915 180.199 31.8548 180.322 31.6855C180.452 31.5098 180.518 31.3079 180.518 31.0801ZM188.096 31.2656L190.293 23.4336H192.08L191.504 26.5098L189.307 34H187.812L188.096 31.2656ZM186.982 23.4336L188.555 31.2559L188.701 34H186.943L184.268 23.4336H186.982ZM194.092 31.1289L195.625 23.4336H198.35L195.674 34H193.926L194.092 31.1289ZM192.324 23.4336L194.512 31.207L194.814 34H193.311L191.113 26.5195L190.557 23.4336H192.324ZM204.629 34.1953C203.809 34.1953 203.073 34.0651 202.422 33.8047C201.771 33.5378 201.217 33.1699 200.762 32.7012C200.312 32.2324 199.967 31.6888 199.727 31.0703C199.486 30.4453 199.365 29.7812 199.365 29.0781V28.6875C199.365 27.8867 199.479 27.1543 199.707 26.4902C199.935 25.8262 200.26 25.25 200.684 24.7617C201.113 24.2734 201.634 23.8991 202.246 23.6387C202.858 23.3717 203.548 23.2383 204.316 23.2383C205.065 23.2383 205.729 23.362 206.309 23.6094C206.888 23.8568 207.373 24.2083 207.764 24.6641C208.161 25.1198 208.46 25.6667 208.662 26.3047C208.864 26.9362 208.965 27.6393 208.965 28.4141V29.5859H200.566V27.7109H206.201V27.4961C206.201 27.1055 206.13 26.7572 205.986 26.4512C205.85 26.1387 205.641 25.8913 205.361 25.709C205.081 25.5267 204.723 25.4355 204.287 25.4355C203.916 25.4355 203.597 25.5169 203.33 25.6797C203.063 25.8424 202.845 26.0703 202.676 26.3633C202.513 26.6562 202.389 27.0013 202.305 27.3984C202.227 27.7891 202.188 28.2188 202.188 28.6875V29.0781C202.188 29.5013 202.246 29.8919 202.363 30.25C202.487 30.6081 202.66 30.9173 202.881 31.1777C203.109 31.4382 203.382 31.64 203.701 31.7832C204.027 31.9264 204.395 31.998 204.805 31.998C205.312 31.998 205.785 31.9004 206.221 31.7051C206.663 31.5033 207.044 31.2005 207.363 30.7969L208.73 32.2812C208.509 32.6003 208.206 32.9062 207.822 33.1992C207.445 33.4922 206.989 33.7331 206.455 33.9219C205.921 34.1042 205.312 34.1953 204.629 34.1953ZM213.379 25.7383V34H210.566V23.4336H213.213L213.379 25.7383ZM216.562 23.3652L216.514 25.9727C216.377 25.9531 216.211 25.9368 216.016 25.9238C215.827 25.9043 215.654 25.8945 215.498 25.8945C215.101 25.8945 214.756 25.9466 214.463 26.0508C214.176 26.1484 213.936 26.2949 213.74 26.4902C213.551 26.6855 213.408 26.9232 213.311 27.2031C213.219 27.4831 213.167 27.8021 213.154 28.1602L212.588 27.9844C212.588 27.3008 212.656 26.6725 212.793 26.0996C212.93 25.5202 213.128 25.0156 213.389 24.5859C213.656 24.1562 213.981 23.8242 214.365 23.5898C214.749 23.3555 215.189 23.2383 215.684 23.2383C215.84 23.2383 215.999 23.2513 216.162 23.2773C216.325 23.2969 216.458 23.3262 216.562 23.3652ZM220.859 23.4336V34H218.037V23.4336H220.859ZM217.861 20.6797C217.861 20.2695 218.005 19.931 218.291 19.6641C218.577 19.3971 218.962 19.2637 219.443 19.2637C219.919 19.2637 220.299 19.3971 220.586 19.6641C220.879 19.931 221.025 20.2695 221.025 20.6797C221.025 21.0898 220.879 21.4284 220.586 21.6953C220.299 21.9622 219.919 22.0957 219.443 22.0957C218.962 22.0957 218.577 21.9622 218.291 21.6953C218.005 21.4284 217.861 21.0898 217.861 20.6797ZM225.938 25.6895V34H223.125V23.4336H225.762L225.938 25.6895ZM225.527 28.3457H224.766C224.766 27.5645 224.867 26.8613 225.068 26.2363C225.27 25.6048 225.553 25.0677 225.918 24.625C226.283 24.1758 226.715 23.834 227.217 23.5996C227.725 23.3587 228.291 23.2383 228.916 23.2383C229.411 23.2383 229.863 23.3099 230.273 23.4531C230.684 23.5964 231.035 23.8242 231.328 24.1367C231.628 24.4492 231.855 24.8626 232.012 25.377C232.174 25.8913 232.256 26.5195 232.256 27.2617V34H229.424V27.252C229.424 26.7832 229.359 26.4186 229.229 26.1582C229.098 25.8978 228.906 25.7155 228.652 25.6113C228.405 25.5007 228.099 25.4453 227.734 25.4453C227.357 25.4453 227.028 25.5202 226.748 25.6699C226.475 25.8197 226.247 26.028 226.064 26.2949C225.889 26.5553 225.755 26.8613 225.664 27.2129C225.573 27.5645 225.527 27.9421 225.527 28.3457ZM241.084 23.4336H243.633V33.6484C243.633 34.612 243.418 35.429 242.988 36.0996C242.565 36.7767 241.973 37.2878 241.211 37.6328C240.449 37.9844 239.564 38.1602 238.555 38.1602C238.112 38.1602 237.643 38.1016 237.148 37.9844C236.66 37.8672 236.191 37.6849 235.742 37.4375C235.299 37.1901 234.928 36.8776 234.629 36.5L235.869 34.8398C236.195 35.2174 236.572 35.5104 237.002 35.7188C237.432 35.9336 237.907 36.041 238.428 36.041C238.936 36.041 239.365 35.9466 239.717 35.7578C240.068 35.5755 240.339 35.3053 240.527 34.9473C240.716 34.5957 240.811 34.1693 240.811 33.668V25.875L241.084 23.4336ZM233.975 28.8438V28.6387C233.975 27.8314 234.072 27.099 234.268 26.4414C234.469 25.7773 234.753 25.2077 235.117 24.7324C235.488 24.2572 235.938 23.8893 236.465 23.6289C236.992 23.3685 237.588 23.2383 238.252 23.2383C238.955 23.2383 239.544 23.3685 240.02 23.6289C240.495 23.8893 240.885 24.2604 241.191 24.7422C241.497 25.2174 241.735 25.7806 241.904 26.4316C242.08 27.0762 242.217 27.7826 242.314 28.5508V29C242.217 29.7357 242.07 30.4193 241.875 31.0508C241.68 31.6823 241.423 32.2357 241.104 32.7109C240.785 33.1797 240.387 33.5443 239.912 33.8047C239.443 34.0651 238.883 34.1953 238.232 34.1953C237.581 34.1953 236.992 34.0618 236.465 33.7949C235.944 33.528 235.498 33.1536 235.127 32.6719C234.756 32.1901 234.469 31.6237 234.268 30.9727C234.072 30.3216 233.975 29.612 233.975 28.8438ZM236.787 28.6387V28.8438C236.787 29.2799 236.829 29.6868 236.914 30.0645C236.999 30.4421 237.129 30.7773 237.305 31.0703C237.487 31.3568 237.712 31.5814 237.979 31.7441C238.252 31.9004 238.574 31.9785 238.945 31.9785C239.46 31.9785 239.88 31.8711 240.205 31.6562C240.531 31.4349 240.775 31.1322 240.938 30.748C241.1 30.3639 241.195 29.9212 241.221 29.4199V28.1406C241.208 27.7305 241.152 27.3626 241.055 27.0371C240.957 26.7051 240.82 26.4219 240.645 26.1875C240.469 25.9531 240.241 25.7708 239.961 25.6406C239.681 25.5104 239.349 25.4453 238.965 25.4453C238.594 25.4453 238.271 25.5299 237.998 25.6992C237.731 25.862 237.507 26.0866 237.324 26.373C237.148 26.6595 237.015 26.998 236.924 27.3887C236.833 27.7728 236.787 28.1895 236.787 28.6387Z" fill="white"/>
<defs>
<linearGradient id="paint0_linear_3819_4236" x1="317.698" y1="42.0187" x2="258.751" y2="-77.6878" gradientUnits="userSpaceOnUse">
<stop stop-color="#006DB2"/>
<stop offset="1" stop-color="#003251"/>
</linearGradient>
</defs>
</svg>
