<svg width="342" height="54" viewBox="0 0 342 54" fill="none" xmlns="http://www.w3.org/2000/svg">
<rect width="342" height="54" rx="15" fill="#EB5757" fill-opacity="0.75"/>
<rect x="1" y="1" width="340" height="52" rx="14" stroke="white" stroke-opacity="0.5" stroke-width="2"/>
<path d="M108.672 30.2793C108.672 30.0254 108.633 29.7975 108.555 29.5957C108.483 29.3874 108.346 29.1986 108.145 29.0293C107.943 28.8535 107.66 28.681 107.295 28.5117C106.93 28.3424 106.458 28.1667 105.879 27.9844C105.234 27.776 104.622 27.5417 104.043 27.2812C103.47 27.0208 102.962 26.7181 102.52 26.373C102.083 26.0215 101.738 25.6146 101.484 25.1523C101.237 24.6901 101.113 24.153 101.113 23.541C101.113 22.9486 101.243 22.4115 101.504 21.9297C101.764 21.4414 102.129 21.0247 102.598 20.6797C103.066 20.3281 103.62 20.0579 104.258 19.8691C104.902 19.6803 105.609 19.5859 106.377 19.5859C107.425 19.5859 108.34 19.7747 109.121 20.1523C109.902 20.5299 110.508 21.0475 110.938 21.7051C111.374 22.3626 111.592 23.1146 111.592 23.9609H108.682C108.682 23.5443 108.594 23.1797 108.418 22.8672C108.249 22.5482 107.988 22.2975 107.637 22.1152C107.292 21.9329 106.855 21.8418 106.328 21.8418C105.82 21.8418 105.397 21.9199 105.059 22.0762C104.72 22.2259 104.466 22.431 104.297 22.6914C104.128 22.9453 104.043 23.2318 104.043 23.5508C104.043 23.7917 104.102 24.0098 104.219 24.2051C104.342 24.4004 104.525 24.5827 104.766 24.752C105.007 24.9212 105.303 25.0807 105.654 25.2305C106.006 25.3802 106.413 25.5267 106.875 25.6699C107.65 25.9043 108.33 26.168 108.916 26.4609C109.508 26.7539 110.003 27.0827 110.4 27.4473C110.798 27.8118 111.097 28.2253 111.299 28.6875C111.501 29.1497 111.602 29.6738 111.602 30.2598C111.602 30.8783 111.481 31.4316 111.24 31.9199C110.999 32.4082 110.651 32.8216 110.195 33.1602C109.74 33.4987 109.196 33.7559 108.564 33.9316C107.933 34.1074 107.227 34.1953 106.445 34.1953C105.742 34.1953 105.049 34.1042 104.365 33.9219C103.682 33.7331 103.06 33.4499 102.5 33.0723C101.947 32.6947 101.504 32.2129 101.172 31.627C100.84 31.041 100.674 30.3477 100.674 29.5469H103.613C103.613 29.9896 103.682 30.3639 103.818 30.6699C103.955 30.9759 104.147 31.2233 104.395 31.4121C104.648 31.6009 104.948 31.7376 105.293 31.8223C105.645 31.9069 106.029 31.9492 106.445 31.9492C106.953 31.9492 107.37 31.8776 107.695 31.7344C108.027 31.5911 108.271 31.3926 108.428 31.1387C108.59 30.8848 108.672 30.5983 108.672 30.2793ZM118.594 23.4336V25.4258H112.441V23.4336H118.594ZM113.965 20.8262H116.777V30.8164C116.777 31.1224 116.816 31.3568 116.895 31.5195C116.979 31.6823 117.103 31.7962 117.266 31.8613C117.428 31.9199 117.633 31.9492 117.881 31.9492C118.057 31.9492 118.213 31.9427 118.35 31.9297C118.493 31.9102 118.613 31.8906 118.711 31.8711L118.721 33.9414C118.48 34.0195 118.219 34.0814 117.939 34.127C117.66 34.1725 117.35 34.1953 117.012 34.1953C116.393 34.1953 115.853 34.0944 115.391 33.8926C114.935 33.6842 114.583 33.3522 114.336 32.8965C114.089 32.4408 113.965 31.8418 113.965 31.0996V20.8262ZM119.492 28.8242V28.6191C119.492 27.8444 119.603 27.1315 119.824 26.4805C120.046 25.8229 120.368 25.2533 120.791 24.7715C121.214 24.2897 121.735 23.9154 122.354 23.6484C122.972 23.375 123.682 23.2383 124.482 23.2383C125.283 23.2383 125.996 23.375 126.621 23.6484C127.246 23.9154 127.77 24.2897 128.193 24.7715C128.623 25.2533 128.949 25.8229 129.17 26.4805C129.391 27.1315 129.502 27.8444 129.502 28.6191V28.8242C129.502 29.5924 129.391 30.3053 129.17 30.9629C128.949 31.6139 128.623 32.1836 128.193 32.6719C127.77 33.1536 127.249 33.528 126.631 33.7949C126.012 34.0618 125.303 34.1953 124.502 34.1953C123.701 34.1953 122.988 34.0618 122.363 33.7949C121.745 33.528 121.221 33.1536 120.791 32.6719C120.368 32.1836 120.046 31.6139 119.824 30.9629C119.603 30.3053 119.492 29.5924 119.492 28.8242ZM122.305 28.6191V28.8242C122.305 29.2669 122.344 29.6803 122.422 30.0645C122.5 30.4486 122.624 30.7871 122.793 31.0801C122.969 31.3665 123.197 31.5911 123.477 31.7539C123.757 31.9167 124.098 31.998 124.502 31.998C124.893 31.998 125.228 31.9167 125.508 31.7539C125.788 31.5911 126.012 31.3665 126.182 31.0801C126.351 30.7871 126.475 30.4486 126.553 30.0645C126.637 29.6803 126.68 29.2669 126.68 28.8242V28.6191C126.68 28.1895 126.637 27.7858 126.553 27.4082C126.475 27.0241 126.348 26.6855 126.172 26.3926C126.003 26.0931 125.778 25.8587 125.498 25.6895C125.218 25.5202 124.88 25.4355 124.482 25.4355C124.085 25.4355 123.747 25.5202 123.467 25.6895C123.193 25.8587 122.969 26.0931 122.793 26.3926C122.624 26.6855 122.5 27.0241 122.422 27.4082C122.344 27.7858 122.305 28.1895 122.305 28.6191ZM134.043 25.4648V38.0625H131.23V23.4336H133.838L134.043 25.4648ZM140.732 28.5996V28.8047C140.732 29.5729 140.641 30.2858 140.459 30.9434C140.283 31.6009 140.023 32.1738 139.678 32.6621C139.333 33.1439 138.903 33.5215 138.389 33.7949C137.881 34.0618 137.295 34.1953 136.631 34.1953C135.986 34.1953 135.426 34.0651 134.951 33.8047C134.476 33.5443 134.076 33.1797 133.75 32.7109C133.431 32.2357 133.174 31.6855 132.979 31.0605C132.783 30.4355 132.633 29.765 132.529 29.0488V28.5117C132.633 27.7435 132.783 27.0404 132.979 26.4023C133.174 25.7578 133.431 25.2012 133.75 24.7324C134.076 24.2572 134.473 23.8893 134.941 23.6289C135.417 23.3685 135.973 23.2383 136.611 23.2383C137.282 23.2383 137.871 23.3652 138.379 23.6191C138.893 23.873 139.323 24.2376 139.668 24.7129C140.02 25.1882 140.283 25.7546 140.459 26.4121C140.641 27.0697 140.732 27.7988 140.732 28.5996ZM137.91 28.8047V28.5996C137.91 28.1504 137.871 27.737 137.793 27.3594C137.721 26.9753 137.604 26.64 137.441 26.3535C137.285 26.0671 137.077 25.8457 136.816 25.6895C136.562 25.5267 136.253 25.4453 135.889 25.4453C135.505 25.4453 135.176 25.5072 134.902 25.6309C134.635 25.7546 134.417 25.9336 134.248 26.168C134.079 26.4023 133.952 26.6823 133.867 27.0078C133.783 27.3333 133.73 27.7012 133.711 28.1113V29.4688C133.743 29.9505 133.835 30.3835 133.984 30.7676C134.134 31.1452 134.365 31.4447 134.678 31.666C134.99 31.8874 135.4 31.998 135.908 31.998C136.279 31.998 136.592 31.9167 136.846 31.7539C137.1 31.5846 137.305 31.3535 137.461 31.0605C137.624 30.7676 137.738 30.429 137.803 30.0449C137.874 29.6608 137.91 29.2474 137.91 28.8047ZM153.418 22.2129L149.551 34H146.436L151.719 19.7812H153.701L153.418 22.2129ZM156.631 34L152.754 22.2129L152.441 19.7812H154.443L159.756 34H156.631ZM156.455 28.707V31.002H148.945V28.707H156.455ZM163.34 25.6895V34H160.527V23.4336H163.164L163.34 25.6895ZM162.93 28.3457H162.168C162.168 27.5645 162.269 26.8613 162.471 26.2363C162.673 25.6048 162.956 25.0677 163.32 24.625C163.685 24.1758 164.118 23.834 164.619 23.5996C165.127 23.3587 165.693 23.2383 166.318 23.2383C166.813 23.2383 167.266 23.3099 167.676 23.4531C168.086 23.5964 168.438 23.8242 168.73 24.1367C169.03 24.4492 169.258 24.8626 169.414 25.377C169.577 25.8913 169.658 26.5195 169.658 27.2617V34H166.826V27.252C166.826 26.7832 166.761 26.4186 166.631 26.1582C166.501 25.8978 166.309 25.7155 166.055 25.6113C165.807 25.5007 165.501 25.4453 165.137 25.4453C164.759 25.4453 164.43 25.5202 164.15 25.6699C163.877 25.8197 163.649 26.028 163.467 26.2949C163.291 26.5553 163.158 26.8613 163.066 27.2129C162.975 27.5645 162.93 27.9421 162.93 28.3457ZM177.51 31.0801C177.51 30.8783 177.451 30.696 177.334 30.5332C177.217 30.3704 176.999 30.2207 176.68 30.084C176.367 29.9408 175.915 29.8105 175.322 29.6934C174.788 29.5762 174.29 29.4297 173.828 29.2539C173.372 29.0716 172.975 28.8535 172.637 28.5996C172.305 28.3457 172.044 28.0462 171.855 27.7012C171.667 27.3496 171.572 26.9492 171.572 26.5C171.572 26.0573 171.667 25.6406 171.855 25.25C172.051 24.8594 172.327 24.5143 172.686 24.2148C173.05 23.9089 173.493 23.6712 174.014 23.502C174.541 23.3262 175.133 23.2383 175.791 23.2383C176.709 23.2383 177.497 23.3848 178.154 23.6777C178.818 23.9707 179.326 24.3743 179.678 24.8887C180.036 25.3965 180.215 25.9759 180.215 26.627H177.402C177.402 26.3535 177.344 26.1094 177.227 25.8945C177.116 25.6732 176.94 25.5007 176.699 25.377C176.465 25.2467 176.159 25.1816 175.781 25.1816C175.469 25.1816 175.199 25.237 174.971 25.3477C174.743 25.4518 174.567 25.5951 174.443 25.7773C174.326 25.9531 174.268 26.1484 174.268 26.3633C174.268 26.526 174.3 26.6725 174.365 26.8027C174.437 26.9264 174.551 27.0404 174.707 27.1445C174.863 27.2487 175.065 27.3464 175.312 27.4375C175.566 27.5221 175.879 27.6003 176.25 27.6719C177.012 27.8281 177.692 28.0332 178.291 28.2871C178.89 28.5345 179.365 28.873 179.717 29.3027C180.068 29.7259 180.244 30.2826 180.244 30.9727C180.244 31.4414 180.14 31.8711 179.932 32.2617C179.723 32.6523 179.424 32.9941 179.033 33.2871C178.643 33.5736 178.174 33.7982 177.627 33.9609C177.087 34.1172 176.478 34.1953 175.801 34.1953C174.818 34.1953 173.984 34.0195 173.301 33.668C172.624 33.3164 172.109 32.8704 171.758 32.3301C171.413 31.7832 171.24 31.2233 171.24 30.6504H173.906C173.919 31.0345 174.017 31.3438 174.199 31.5781C174.388 31.8125 174.626 31.9818 174.912 32.0859C175.205 32.1901 175.521 32.2422 175.859 32.2422C176.224 32.2422 176.527 32.1934 176.768 32.0957C177.008 31.9915 177.191 31.8548 177.314 31.6855C177.445 31.5098 177.51 31.3079 177.51 31.0801ZM185.088 31.2656L187.285 23.4336H189.072L188.496 26.5098L186.299 34H184.805L185.088 31.2656ZM183.975 23.4336L185.547 31.2559L185.693 34H183.936L181.26 23.4336H183.975ZM191.084 31.1289L192.617 23.4336H195.342L192.666 34H190.918L191.084 31.1289ZM189.316 23.4336L191.504 31.207L191.807 34H190.303L188.105 26.5195L187.549 23.4336H189.316ZM201.621 34.1953C200.801 34.1953 200.065 34.0651 199.414 33.8047C198.763 33.5378 198.21 33.1699 197.754 32.7012C197.305 32.2324 196.96 31.6888 196.719 31.0703C196.478 30.4453 196.357 29.7812 196.357 29.0781V28.6875C196.357 27.8867 196.471 27.1543 196.699 26.4902C196.927 25.8262 197.253 25.25 197.676 24.7617C198.105 24.2734 198.626 23.8991 199.238 23.6387C199.85 23.3717 200.54 23.2383 201.309 23.2383C202.057 23.2383 202.721 23.362 203.301 23.6094C203.88 23.8568 204.365 24.2083 204.756 24.6641C205.153 25.1198 205.452 25.6667 205.654 26.3047C205.856 26.9362 205.957 27.6393 205.957 28.4141V29.5859H197.559V27.7109H203.193V27.4961C203.193 27.1055 203.122 26.7572 202.979 26.4512C202.842 26.1387 202.633 25.8913 202.354 25.709C202.074 25.5267 201.715 25.4355 201.279 25.4355C200.908 25.4355 200.589 25.5169 200.322 25.6797C200.055 25.8424 199.837 26.0703 199.668 26.3633C199.505 26.6562 199.382 27.0013 199.297 27.3984C199.219 27.7891 199.18 28.2188 199.18 28.6875V29.0781C199.18 29.5013 199.238 29.8919 199.355 30.25C199.479 30.6081 199.652 30.9173 199.873 31.1777C200.101 31.4382 200.374 31.64 200.693 31.7832C201.019 31.9264 201.387 31.998 201.797 31.998C202.305 31.998 202.777 31.9004 203.213 31.7051C203.656 31.5033 204.036 31.2005 204.355 30.7969L205.723 32.2812C205.501 32.6003 205.199 32.9062 204.814 33.1992C204.437 33.4922 203.981 33.7331 203.447 33.9219C202.913 34.1042 202.305 34.1953 201.621 34.1953ZM210.371 25.7383V34H207.559V23.4336H210.205L210.371 25.7383ZM213.555 23.3652L213.506 25.9727C213.369 25.9531 213.203 25.9368 213.008 25.9238C212.819 25.9043 212.646 25.8945 212.49 25.8945C212.093 25.8945 211.748 25.9466 211.455 26.0508C211.169 26.1484 210.928 26.2949 210.732 26.4902C210.544 26.6855 210.4 26.9232 210.303 27.2031C210.212 27.4831 210.16 27.8021 210.146 28.1602L209.58 27.9844C209.58 27.3008 209.648 26.6725 209.785 26.0996C209.922 25.5202 210.12 25.0156 210.381 24.5859C210.648 24.1562 210.973 23.8242 211.357 23.5898C211.742 23.3555 212.181 23.2383 212.676 23.2383C212.832 23.2383 212.992 23.2513 213.154 23.2773C213.317 23.2969 213.451 23.3262 213.555 23.3652ZM217.852 23.4336V34H215.029V23.4336H217.852ZM214.854 20.6797C214.854 20.2695 214.997 19.931 215.283 19.6641C215.57 19.3971 215.954 19.2637 216.436 19.2637C216.911 19.2637 217.292 19.3971 217.578 19.6641C217.871 19.931 218.018 20.2695 218.018 20.6797C218.018 21.0898 217.871 21.4284 217.578 21.6953C217.292 21.9622 216.911 22.0957 216.436 22.0957C215.954 22.0957 215.57 21.9622 215.283 21.6953C214.997 21.4284 214.854 21.0898 214.854 20.6797ZM222.93 25.6895V34H220.117V23.4336H222.754L222.93 25.6895ZM222.52 28.3457H221.758C221.758 27.5645 221.859 26.8613 222.061 26.2363C222.262 25.6048 222.546 25.0677 222.91 24.625C223.275 24.1758 223.708 23.834 224.209 23.5996C224.717 23.3587 225.283 23.2383 225.908 23.2383C226.403 23.2383 226.855 23.3099 227.266 23.4531C227.676 23.5964 228.027 23.8242 228.32 24.1367C228.62 24.4492 228.848 24.8626 229.004 25.377C229.167 25.8913 229.248 26.5195 229.248 27.2617V34H226.416V27.252C226.416 26.7832 226.351 26.4186 226.221 26.1582C226.09 25.8978 225.898 25.7155 225.645 25.6113C225.397 25.5007 225.091 25.4453 224.727 25.4453C224.349 25.4453 224.02 25.5202 223.74 25.6699C223.467 25.8197 223.239 26.028 223.057 26.2949C222.881 26.5553 222.747 26.8613 222.656 27.2129C222.565 27.5645 222.52 27.9421 222.52 28.3457ZM238.076 23.4336H240.625V33.6484C240.625 34.612 240.41 35.429 239.98 36.0996C239.557 36.7767 238.965 37.2878 238.203 37.6328C237.441 37.9844 236.556 38.1602 235.547 38.1602C235.104 38.1602 234.635 38.1016 234.141 37.9844C233.652 37.8672 233.184 37.6849 232.734 37.4375C232.292 37.1901 231.921 36.8776 231.621 36.5L232.861 34.8398C233.187 35.2174 233.564 35.5104 233.994 35.7188C234.424 35.9336 234.899 36.041 235.42 36.041C235.928 36.041 236.357 35.9466 236.709 35.7578C237.061 35.5755 237.331 35.3053 237.52 34.9473C237.708 34.5957 237.803 34.1693 237.803 33.668V25.875L238.076 23.4336ZM230.967 28.8438V28.6387C230.967 27.8314 231.064 27.099 231.26 26.4414C231.462 25.7773 231.745 25.2077 232.109 24.7324C232.48 24.2572 232.93 23.8893 233.457 23.6289C233.984 23.3685 234.58 23.2383 235.244 23.2383C235.947 23.2383 236.536 23.3685 237.012 23.6289C237.487 23.8893 237.878 24.2604 238.184 24.7422C238.49 25.2174 238.727 25.7806 238.896 26.4316C239.072 27.0762 239.209 27.7826 239.307 28.5508V29C239.209 29.7357 239.062 30.4193 238.867 31.0508C238.672 31.6823 238.415 32.2357 238.096 32.7109C237.777 33.1797 237.38 33.5443 236.904 33.8047C236.436 34.0651 235.876 34.1953 235.225 34.1953C234.574 34.1953 233.984 34.0618 233.457 33.7949C232.936 33.528 232.49 33.1536 232.119 32.6719C231.748 32.1901 231.462 31.6237 231.26 30.9727C231.064 30.3216 230.967 29.612 230.967 28.8438ZM233.779 28.6387V28.8438C233.779 29.2799 233.822 29.6868 233.906 30.0645C233.991 30.4421 234.121 30.7773 234.297 31.0703C234.479 31.3568 234.704 31.5814 234.971 31.7441C235.244 31.9004 235.566 31.9785 235.938 31.9785C236.452 31.9785 236.872 31.8711 237.197 31.6562C237.523 31.4349 237.767 31.1322 237.93 30.748C238.092 30.3639 238.187 29.9212 238.213 29.4199V28.1406C238.2 27.7305 238.145 27.3626 238.047 27.0371C237.949 26.7051 237.812 26.4219 237.637 26.1875C237.461 25.9531 237.233 25.7708 236.953 25.6406C236.673 25.5104 236.341 25.4453 235.957 25.4453C235.586 25.4453 235.264 25.5299 234.99 25.6992C234.723 25.862 234.499 26.0866 234.316 26.373C234.141 26.6595 234.007 26.998 233.916 27.3887C233.825 27.7728 233.779 28.1895 233.779 28.6387Z" fill="white"/>
</svg>
