<svg width="208" height="208" viewBox="0 0 208 208" fill="none" xmlns="http://www.w3.org/2000/svg">
<path fill-rule="evenodd" clip-rule="evenodd" d="M104 8C101.887 8 99.7897 8.06823 97.7114 8.20254C95.5068 8.345 93.6042 6.67336 93.4617 4.46882C93.3193 2.26428 94.9909 0.361654 97.1955 0.219191C99.4454 0.0737917 101.714 0 104 0C106.286 0 108.555 0.0737915 110.805 0.21919C113.009 0.361653 114.681 2.26428 114.538 4.46882C114.396 6.67336 112.493 8.345 110.289 8.20254C108.21 8.06823 106.113 8 104 8ZM119.592 5.12713C120.021 2.95999 122.125 1.55073 124.292 1.97945C128.786 2.86839 133.176 4.0468 137.441 5.49446C139.533 6.20443 140.653 8.47583 139.944 10.5678C139.234 12.6597 136.962 13.78 134.87 13.0701C130.935 11.7347 126.886 10.6475 122.74 9.82736C120.573 9.39863 119.164 7.29427 119.592 5.12713ZM88.4077 5.12713C88.8365 7.29427 87.4272 9.39863 85.2601 9.82736C81.1142 10.6475 77.0646 11.7347 73.1298 13.0701C71.0378 13.78 68.7664 12.6597 68.0565 10.5678C67.3465 8.47583 68.4668 6.20443 70.5588 5.49446C74.8243 4.04681 79.214 2.8684 83.7075 1.97946C85.8746 1.55073 87.979 2.95999 88.4077 5.12713ZM144.652 12.5207C145.631 10.5402 148.03 9.72787 150.01 10.7064C154.095 12.7247 158.028 15.003 161.787 17.5196C163.623 18.7486 164.114 21.233 162.885 23.0687C161.656 24.9045 159.172 25.3963 157.336 24.1673C153.866 21.8439 150.236 19.7411 146.467 17.8788C144.486 16.9002 143.674 14.5013 144.652 12.5207ZM63.3477 12.5207C64.3262 14.5013 63.514 16.9002 61.5334 17.8788C57.764 19.7411 54.1341 21.844 50.6637 24.1673C48.828 25.3963 46.3435 24.9045 45.1146 23.0687C43.8856 21.233 44.3774 18.7486 46.2132 17.5196C49.9722 15.003 53.9049 12.7247 57.9897 10.7064C59.9702 9.72788 62.3691 10.5402 63.3477 12.5207ZM166.929 26.1761C168.386 24.5158 170.913 24.3511 172.574 25.8084C175.985 28.8021 179.198 32.0154 182.192 35.4264C183.649 37.0867 183.484 39.614 181.824 41.0713C180.164 42.5285 177.636 42.3638 176.179 40.7035C173.414 37.5534 170.447 34.5858 167.297 31.821C165.636 30.3638 165.471 27.8365 166.929 26.1761ZM41.0713 26.1761C42.5285 27.8365 42.3638 30.3638 40.7035 31.821C37.5534 34.5858 34.5858 37.5534 31.821 40.7035C30.3638 42.3638 27.8365 42.5285 26.1761 41.0713C24.5158 39.614 24.3511 37.0867 25.8084 35.4264C28.8021 32.0154 32.0154 28.8021 35.4264 25.8084C37.0867 24.3511 39.614 24.5158 41.0713 26.1761ZM184.931 45.1146C186.767 43.8856 189.251 44.3774 190.48 46.2132C192.997 49.9722 195.275 53.9049 197.294 57.9897C198.272 59.9702 197.46 62.3691 195.479 63.3477C193.499 64.3262 191.1 63.514 190.121 61.5334C188.259 57.764 186.156 54.1341 183.833 50.6637C182.604 48.828 183.096 46.3435 184.931 45.1146ZM23.0687 45.1146C24.9045 46.3436 25.3963 48.828 24.1673 50.6637C21.8439 54.1341 19.7411 57.764 17.8788 61.5334C16.9002 63.514 14.5013 64.3263 12.5207 63.3477C10.5402 62.3691 9.72787 59.9702 10.7064 57.9897C12.7247 53.9049 15.003 49.9722 17.5196 46.2132C18.7486 44.3774 21.233 43.8856 23.0687 45.1146ZM197.432 68.0565C199.524 67.3465 201.796 68.4668 202.506 70.5588C203.953 74.8243 205.132 79.214 206.021 83.7075C206.449 85.8746 205.04 87.979 202.873 88.4077C200.706 88.8365 198.601 87.4272 198.173 85.2601C197.352 81.1142 196.265 77.0646 194.93 73.1298C194.22 71.0378 195.34 68.7664 197.432 68.0565ZM10.5678 68.0565C12.6597 68.7665 13.78 71.0379 13.0701 73.1298C11.7347 77.0646 10.6475 81.1142 9.82736 85.2601C9.39863 87.4272 7.29427 88.8365 5.12713 88.4078C2.95999 87.979 1.55073 85.8747 1.97945 83.7075C2.86839 79.2141 4.0468 74.8243 5.49446 70.5588C6.20443 68.4668 8.47583 67.3465 10.5678 68.0565ZM203.531 93.4617C205.736 93.3193 207.638 94.9909 207.781 97.1955C207.926 99.4454 208 101.714 208 104C208 106.286 207.926 108.555 207.781 110.805C207.638 113.009 205.736 114.681 203.531 114.538C201.327 114.396 199.655 112.493 199.797 110.289C199.932 108.21 200 106.113 200 104C200 101.887 199.932 99.7897 199.797 97.7114C199.655 95.5068 201.327 93.6042 203.531 93.4617ZM4.46882 93.4618C6.67336 93.6042 8.345 95.5068 8.20254 97.7114C8.06823 99.7897 8 101.887 8 104C8 106.113 8.06823 108.21 8.20254 110.289C8.345 112.493 6.67336 114.396 4.46882 114.538C2.26428 114.681 0.361654 113.009 0.219191 110.805C0.0737917 108.555 0 106.286 0 104C0 101.714 0.0737915 99.4454 0.21919 97.1955C0.361653 94.9909 2.26428 93.3193 4.46882 93.4618ZM202.873 119.592C205.04 120.021 206.449 122.125 206.021 124.292C205.132 128.786 203.953 133.176 202.506 137.441C201.796 139.533 199.524 140.653 197.432 139.944C195.34 139.234 194.22 136.962 194.93 134.87C196.265 130.935 197.352 126.886 198.173 122.74C198.601 120.573 200.706 119.164 202.873 119.592ZM5.12713 119.592C7.29427 119.164 9.39863 120.573 9.82736 122.74C10.6475 126.886 11.7347 130.935 13.0701 134.87C13.78 136.962 12.6597 139.234 10.5678 139.944C8.47583 140.654 6.20443 139.533 5.49446 137.441C4.04681 133.176 2.8684 128.786 1.97946 124.292C1.55073 122.125 2.95999 120.021 5.12713 119.592ZM195.479 144.652C197.46 145.631 198.272 148.03 197.294 150.01C195.275 154.095 192.997 158.028 190.48 161.787C189.251 163.623 186.767 164.114 184.931 162.885C183.096 161.656 182.604 159.172 183.833 157.336C186.156 153.866 188.259 150.236 190.121 146.467C191.1 144.486 193.499 143.674 195.479 144.652ZM12.5207 144.652C14.5013 143.674 16.9002 144.486 17.8788 146.467C19.7411 150.236 21.844 153.866 24.1673 157.336C25.3963 159.172 24.9045 161.656 23.0687 162.885C21.233 164.114 18.7486 163.623 17.5196 161.787C15.003 158.028 12.7247 154.095 10.7064 150.01C9.72788 148.03 10.5402 145.631 12.5207 144.652ZM181.824 166.929C183.484 168.386 183.649 170.913 182.192 172.574C179.198 175.985 175.985 179.198 172.574 182.192C170.913 183.649 168.386 183.484 166.929 181.824C165.472 180.164 165.636 177.636 167.297 176.179C170.447 173.414 173.414 170.447 176.179 167.297C177.636 165.636 180.164 165.471 181.824 166.929ZM26.1761 166.929C27.8365 165.472 30.3638 165.636 31.821 167.297C34.5858 170.447 37.5534 173.414 40.7035 176.179C42.3638 177.636 42.5285 180.164 41.0713 181.824C39.614 183.484 37.0867 183.649 35.4264 182.192C32.0154 179.198 28.8021 175.985 25.8084 172.574C24.3511 170.913 24.5158 168.386 26.1761 166.929ZM45.1146 184.931C46.3436 183.096 48.828 182.604 50.6637 183.833C54.1341 186.156 57.764 188.259 61.5334 190.121C63.514 191.1 64.3263 193.499 63.3477 195.479C62.3691 197.46 59.9702 198.272 57.9897 197.294C53.9049 195.275 49.9722 192.997 46.2132 190.48C44.3774 189.251 43.8856 186.767 45.1146 184.931ZM162.885 184.931C164.114 186.767 163.623 189.251 161.787 190.48C158.028 192.997 154.095 195.275 150.01 197.294C148.03 198.272 145.631 197.46 144.652 195.479C143.674 193.499 144.486 191.1 146.467 190.121C150.236 188.259 153.866 186.156 157.336 183.833C159.172 182.604 161.656 183.096 162.885 184.931ZM68.0565 197.432C68.7665 195.34 71.0379 194.22 73.1298 194.93C77.0646 196.265 81.1142 197.352 85.2601 198.173C87.4272 198.601 88.8365 200.706 88.4078 202.873C87.979 205.04 85.8747 206.449 83.7075 206.021C79.2141 205.132 74.8243 203.953 70.5588 202.506C68.4668 201.796 67.3465 199.524 68.0565 197.432ZM139.944 197.432C140.654 199.524 139.533 201.796 137.441 202.506C133.176 203.953 128.786 205.132 124.292 206.021C122.125 206.449 120.021 205.04 119.592 202.873C119.164 200.706 120.573 198.601 122.74 198.173C126.886 197.352 130.935 196.265 134.87 194.93C136.962 194.22 139.234 195.34 139.944 197.432ZM93.4618 203.531C93.6042 201.327 95.5068 199.655 97.7114 199.797C99.7897 199.932 101.887 200 104 200C106.113 200 108.21 199.932 110.289 199.797C112.493 199.655 114.396 201.327 114.538 203.531C114.681 205.736 113.009 207.638 110.805 207.781C108.555 207.926 106.286 208 104 208C101.714 208 99.4454 207.926 97.1955 207.781C94.9909 207.638 93.3193 205.736 93.4618 203.531Z" fill="url(#paint0_linear_3622_4246)"/>
<defs>
<linearGradient id="paint0_linear_3622_4246" x1="0" y1="104" x2="208" y2="104" gradientUnits="userSpaceOnUse">
<stop stop-color="#00F5A0"/>
<stop offset="1" stop-color="#00D9F5"/>
</linearGradient>
</defs>
</svg>
