<svg width="342" height="54" viewBox="0 0 342 54" fill="none" xmlns="http://www.w3.org/2000/svg">
<rect width="342" height="54" rx="15" fill="url(#paint0_linear_4062_6681)"/>
<rect x="1" y="1" width="340" height="52" rx="14" stroke="white" stroke-opacity="0.5" stroke-width="2"/>
<path d="M147.172 30.2793C147.172 30.0254 147.133 29.7975 147.055 29.5957C146.983 29.3874 146.846 29.1986 146.645 29.0293C146.443 28.8535 146.16 28.681 145.795 28.5117C145.43 28.3424 144.958 28.1667 144.379 27.9844C143.734 27.776 143.122 27.5417 142.543 27.2812C141.97 27.0208 141.462 26.7181 141.02 26.373C140.583 26.0215 140.238 25.6146 139.984 25.1523C139.737 24.6901 139.613 24.153 139.613 23.541C139.613 22.9486 139.743 22.4115 140.004 21.9297C140.264 21.4414 140.629 21.0247 141.098 20.6797C141.566 20.3281 142.12 20.0579 142.758 19.8691C143.402 19.6803 144.109 19.5859 144.877 19.5859C145.925 19.5859 146.84 19.7747 147.621 20.1523C148.402 20.5299 149.008 21.0475 149.438 21.7051C149.874 22.3626 150.092 23.1146 150.092 23.9609H147.182C147.182 23.5443 147.094 23.1797 146.918 22.8672C146.749 22.5482 146.488 22.2975 146.137 22.1152C145.792 21.9329 145.355 21.8418 144.828 21.8418C144.32 21.8418 143.897 21.9199 143.559 22.0762C143.22 22.2259 142.966 22.431 142.797 22.6914C142.628 22.9453 142.543 23.2318 142.543 23.5508C142.543 23.7917 142.602 24.0098 142.719 24.2051C142.842 24.4004 143.025 24.5827 143.266 24.752C143.507 24.9212 143.803 25.0807 144.154 25.2305C144.506 25.3802 144.913 25.5267 145.375 25.6699C146.15 25.9043 146.83 26.168 147.416 26.4609C148.008 26.7539 148.503 27.0827 148.9 27.4473C149.298 27.8118 149.597 28.2253 149.799 28.6875C150.001 29.1497 150.102 29.6738 150.102 30.2598C150.102 30.8783 149.981 31.4316 149.74 31.9199C149.499 32.4082 149.151 32.8216 148.695 33.1602C148.24 33.4987 147.696 33.7559 147.064 33.9316C146.433 34.1074 145.727 34.1953 144.945 34.1953C144.242 34.1953 143.549 34.1042 142.865 33.9219C142.182 33.7331 141.56 33.4499 141 33.0723C140.447 32.6947 140.004 32.2129 139.672 31.627C139.34 31.041 139.174 30.3477 139.174 29.5469H142.113C142.113 29.9896 142.182 30.3639 142.318 30.6699C142.455 30.9759 142.647 31.2233 142.895 31.4121C143.148 31.6009 143.448 31.7376 143.793 31.8223C144.145 31.9069 144.529 31.9492 144.945 31.9492C145.453 31.9492 145.87 31.8776 146.195 31.7344C146.527 31.5911 146.771 31.3926 146.928 31.1387C147.09 30.8848 147.172 30.5983 147.172 30.2793ZM158.168 31.4707V23.4336H160.98V34H158.334L158.168 31.4707ZM158.48 29.3027L159.311 29.2832C159.311 29.9863 159.229 30.6406 159.066 31.2461C158.904 31.8451 158.66 32.3659 158.334 32.8086C158.008 33.2448 157.598 33.5866 157.104 33.834C156.609 34.0749 156.026 34.1953 155.355 34.1953C154.841 34.1953 154.366 34.1237 153.93 33.9805C153.5 33.8307 153.129 33.5996 152.816 33.2871C152.51 32.9681 152.27 32.5612 152.094 32.0664C151.924 31.5651 151.84 30.9629 151.84 30.2598V23.4336H154.652V30.2793C154.652 30.5918 154.688 30.8555 154.76 31.0703C154.838 31.2852 154.945 31.4609 155.082 31.5977C155.219 31.7344 155.378 31.832 155.561 31.8906C155.749 31.9492 155.958 31.9785 156.186 31.9785C156.765 31.9785 157.221 31.8613 157.553 31.627C157.891 31.3926 158.129 31.0736 158.266 30.6699C158.409 30.2598 158.48 29.804 158.48 29.3027ZM163.129 19H165.941V31.5781L165.658 34H163.129V19ZM172.631 28.6094V28.8145C172.631 29.6022 172.546 30.3249 172.377 30.9824C172.214 31.64 171.96 32.2096 171.615 32.6914C171.27 33.1667 170.84 33.5378 170.326 33.8047C169.818 34.0651 169.219 34.1953 168.529 34.1953C167.885 34.1953 167.325 34.0651 166.85 33.8047C166.381 33.5443 165.987 33.1764 165.668 32.7012C165.349 32.2259 165.092 31.6693 164.896 31.0312C164.701 30.3932 164.555 29.6966 164.457 28.9414V28.4922C164.555 27.737 164.701 27.0404 164.896 26.4023C165.092 25.7643 165.349 25.2077 165.668 24.7324C165.987 24.2572 166.381 23.8893 166.85 23.6289C167.318 23.3685 167.872 23.2383 168.51 23.2383C169.206 23.2383 169.812 23.3717 170.326 23.6387C170.847 23.8991 171.277 24.2702 171.615 24.752C171.96 25.2272 172.214 25.7936 172.377 26.4512C172.546 27.1022 172.631 27.8216 172.631 28.6094ZM169.818 28.8145V28.6094C169.818 28.1797 169.786 27.776 169.721 27.3984C169.662 27.0143 169.558 26.679 169.408 26.3926C169.258 26.0996 169.053 25.8685 168.793 25.6992C168.539 25.5299 168.21 25.4453 167.807 25.4453C167.423 25.4453 167.097 25.5104 166.83 25.6406C166.563 25.7708 166.342 25.9531 166.166 26.1875C165.997 26.4219 165.87 26.7018 165.785 27.0273C165.701 27.3464 165.648 27.6979 165.629 28.082V29.3613C165.648 29.8757 165.733 30.3314 165.883 30.7285C166.039 31.1191 166.273 31.4284 166.586 31.6562C166.905 31.8776 167.318 31.9883 167.826 31.9883C168.223 31.9883 168.552 31.9102 168.812 31.7539C169.073 31.5977 169.275 31.3763 169.418 31.0898C169.568 30.8034 169.672 30.4681 169.73 30.084C169.789 29.6934 169.818 29.2702 169.818 28.8145ZM177.191 25.6211V34H174.369V23.4336H177.016L177.191 25.6211ZM176.801 28.3457H176.02C176.02 27.61 176.107 26.9329 176.283 26.3145C176.465 25.6895 176.729 25.1491 177.074 24.6934C177.426 24.2311 177.859 23.873 178.373 23.6191C178.887 23.3652 179.483 23.2383 180.16 23.2383C180.629 23.2383 181.059 23.3099 181.449 23.4531C181.84 23.5898 182.175 23.8079 182.455 24.1074C182.742 24.4004 182.963 24.7845 183.119 25.2598C183.275 25.7285 183.354 26.2917 183.354 26.9492V34H180.541V27.2617C180.541 26.7799 180.476 26.4089 180.346 26.1484C180.215 25.888 180.03 25.7057 179.789 25.6016C179.555 25.4974 179.271 25.4453 178.939 25.4453C178.575 25.4453 178.256 25.5202 177.982 25.6699C177.715 25.8197 177.494 26.028 177.318 26.2949C177.143 26.5553 177.012 26.8613 176.928 27.2129C176.843 27.5645 176.801 27.9421 176.801 28.3457ZM183.09 28.0234L182.084 28.1504C182.084 27.4603 182.169 26.819 182.338 26.2266C182.514 25.6341 182.771 25.1133 183.109 24.6641C183.454 24.2148 183.881 23.8665 184.389 23.6191C184.896 23.3652 185.482 23.2383 186.146 23.2383C186.654 23.2383 187.117 23.3132 187.533 23.4629C187.95 23.6061 188.305 23.8372 188.598 24.1562C188.897 24.4688 189.125 24.8789 189.281 25.3867C189.444 25.8945 189.525 26.5163 189.525 27.252V34H186.703V27.252C186.703 26.7637 186.638 26.3926 186.508 26.1387C186.384 25.8783 186.202 25.6992 185.961 25.6016C185.727 25.4974 185.447 25.4453 185.121 25.4453C184.783 25.4453 184.486 25.5137 184.232 25.6504C183.979 25.7806 183.767 25.9629 183.598 26.1973C183.428 26.4316 183.301 26.7051 183.217 27.0176C183.132 27.3236 183.09 27.6589 183.09 28.0234ZM194.672 23.4336V34H191.85V23.4336H194.672ZM191.674 20.6797C191.674 20.2695 191.817 19.931 192.104 19.6641C192.39 19.3971 192.774 19.2637 193.256 19.2637C193.731 19.2637 194.112 19.3971 194.398 19.6641C194.691 19.931 194.838 20.2695 194.838 20.6797C194.838 21.0898 194.691 21.4284 194.398 21.6953C194.112 21.9622 193.731 22.0957 193.256 22.0957C192.774 22.0957 192.39 21.9622 192.104 21.6953C191.817 21.4284 191.674 21.0898 191.674 20.6797ZM202.172 23.4336V25.4258H196.02V23.4336H202.172ZM197.543 20.8262H200.355V30.8164C200.355 31.1224 200.395 31.3568 200.473 31.5195C200.557 31.6823 200.681 31.7962 200.844 31.8613C201.007 31.9199 201.212 31.9492 201.459 31.9492C201.635 31.9492 201.791 31.9427 201.928 31.9297C202.071 31.9102 202.191 31.8906 202.289 31.8711L202.299 33.9414C202.058 34.0195 201.798 34.0814 201.518 34.127C201.238 34.1725 200.928 34.1953 200.59 34.1953C199.971 34.1953 199.431 34.0944 198.969 33.8926C198.513 33.6842 198.161 33.3522 197.914 32.8965C197.667 32.4408 197.543 31.8418 197.543 31.0996V20.8262Z" fill="white"/>
<defs>
<linearGradient id="paint0_linear_4062_6681" x1="314.935" y1="42.0187" x2="255.675" y2="-77.2776" gradientUnits="userSpaceOnUse">
<stop stop-color="#006DB2"/>
<stop offset="1" stop-color="#003251"/>
</linearGradient>
</defs>
</svg>
