<svg width="30" height="30" viewBox="0 0 30 30" fill="none" xmlns="http://www.w3.org/2000/svg">
<path fill-rule="evenodd" clip-rule="evenodd" d="M0 15C0 6.71573 6.71573 0 15 0C23.2843 0 30 6.71573 30 15C30 23.2843 23.2843 30 15 30C6.71573 30 0 23.2843 0 15ZM13.3942 12.7822C15.1577 11.9005 17.1432 13.4933 16.665 15.406L15.5743 19.7691L15.6381 19.7372C16.2081 19.4522 16.9011 19.6833 17.1861 20.2532C17.4711 20.8232 17.2401 21.5163 16.6701 21.8013L16.6063 21.8332C14.8429 22.7149 12.8573 21.1222 13.3355 19.2094L14.4263 14.8463L14.3624 14.8782C13.7924 15.1632 13.0994 14.9322 12.8144 14.3622C12.5294 13.7922 12.7604 13.0991 13.3304 12.8141L13.3942 12.7822ZM15 10.3846C15.6373 10.3846 16.1538 9.86802 16.1538 9.23077C16.1538 8.59352 15.6373 8.07692 15 8.07692C14.3627 8.07692 13.8462 8.59352 13.8462 9.23077C13.8462 9.86802 14.3627 10.3846 15 10.3846Z" fill="#F5F5F5"/>
</svg>
